<?xml version="1.0" encoding="UTF-8"?>
<svg version="1.1" xmlns="http://www.w3.org/2000/svg" width="512" height="512">
<path d="M0 0 C1.18981476 -0.00701431 2.37962952 -0.01402863 3.60549927 -0.02125549 C7.42714254 -0.03867457 11.24863098 -0.04510814 15.0703125 -0.046875 C16.37387695 -0.04754974 17.67744141 -0.04822449 19.02050781 -0.04891968 C37.91380438 -0.03335563 56.50157206 0.20586533 75.1953125 3.203125 C76.3105127 3.38004883 77.42571289 3.55697266 78.57470703 3.73925781 C105.98357766 8.24834606 137.91887004 14.30408637 156.953125 36.34375 C158.26409742 38.30608607 158.77660408 39.89512249 159.1953125 42.203125 C160.7421875 42.1103125 160.7421875 42.1103125 162.3203125 42.015625 C177.72656492 42.12411974 192.05372147 48.27180581 203.0234375 58.97265625 C203.74015625 59.70871094 204.456875 60.44476563 205.1953125 61.203125 C205.82953125 61.80511719 206.46375 62.40710937 207.1171875 63.02734375 C213.70281261 69.74409857 218.97184235 79.95141497 219.8828125 89.328125 C220.11807976 91.44095947 220.11807976 91.44095947 221.1953125 93.203125 C224.07465866 94.86584602 226.9533907 95.93721032 230.08984375 97.03515625 C234.48717371 98.68899481 237.69422298 101.12640997 241.1953125 104.203125 C241.81148438 104.72648437 242.42765625 105.24984375 243.0625 105.7890625 C250.1152809 112.23645448 254.81562286 121.59441624 255.46273804 131.15348816 C255.48056733 132.66758836 255.4876115 134.18184079 255.48583984 135.69604492 C255.49255707 136.5278125 255.49927429 137.35958008 255.50619507 138.21655273 C255.52513019 140.95562789 255.52909741 143.69445728 255.53125 146.43359375 C255.53768253 148.34922891 255.54441123 150.26486309 255.55142212 152.18049622 C255.56338476 156.19432856 255.56710413 160.20807492 255.56591797 164.22192383 C255.56571518 169.34163854 255.59298009 174.46079566 255.62746239 179.58037853 C255.64980762 183.53803491 255.65375313 187.49555889 255.65269852 191.45327187 C255.65504444 193.33934761 255.66381053 195.22542758 255.67936325 197.11144066 C255.78997208 211.91387263 254.27115921 223.58019947 244.1953125 235.203125 C238.4941342 240.55567009 231.80546098 245.20368178 224.078125 246.87890625 C220.89282032 247.9405212 220.89282032 247.9405212 219.98046875 251.2578125 C219.74199219 252.51851562 219.50351562 253.77921875 219.2578125 255.078125 C215.96963932 269.87579157 206.99508738 281.78373585 194.3828125 290.078125 C184.86193892 296.07508911 174.65396895 299.33755664 163.38549805 299.31665039 C162.72152512 299.31679642 162.05755219 299.31694244 161.37345886 299.3170929 C159.19294901 299.31639983 157.01252606 299.30863599 154.83203125 299.30078125 C153.3146011 299.29891492 151.79717035 299.29749203 150.27973938 299.29649353 C146.29640015 299.29268532 142.3130977 299.28286959 138.32977295 299.27178955 C134.26086932 299.26153889 130.19195971 299.25698809 126.12304688 299.25195312 C118.14711671 299.24124574 110.17122342 299.22366274 102.1953125 299.203125 C102.1953125 307.453125 102.1953125 315.703125 102.1953125 324.203125 C105.5365625 324.5125 105.5365625 324.5125 108.9453125 324.828125 C135.23936508 327.86840925 158.22690799 340.05373623 177.1953125 358.203125 C178.20658203 359.11964844 178.20658203 359.11964844 179.23828125 360.0546875 C200.44658819 379.95070399 212.03721742 410.16449054 213.30990601 438.77964783 C213.37458501 441.44842387 213.41201438 444.11568326 213.43359375 446.78515625 C213.4416655 447.76119308 213.44973724 448.73722992 213.45805359 449.74284363 C213.47178838 451.79412108 213.48255716 453.84542037 213.49047852 455.89672852 C213.50200504 457.97069111 213.52246737 460.04462388 213.55200195 462.1184082 C213.95939876 490.82053756 213.95939876 490.82053756 204.046875 502.3359375 C196.26607016 510.18240314 188.15654055 512.53055188 177.26740193 512.61834151 C175.31857771 512.6113728 175.31857771 512.6113728 173.3303833 512.60426331 C171.92134389 512.60987375 170.51230914 512.61677831 169.10328174 512.62485927 C165.24513166 512.64315734 161.38717714 512.64281919 157.52899361 512.63927615 C153.36250956 512.6386627 149.19608754 512.65523397 145.02963257 512.66944885 C136.87185028 512.69433947 128.71413302 512.70261206 120.55631593 512.70428599 C113.92330472 512.70571285 107.29031492 512.71188401 100.65731049 512.72138786 C81.83991805 512.7477998 63.02257688 512.76164721 44.20516577 512.75939644 C42.6843509 512.75921664 42.6843509 512.75921664 41.1328125 512.7590332 C40.11769399 512.75891056 39.10257547 512.75878792 38.05669579 512.75866156 C21.60791278 512.75744239 5.15933586 512.78614751 -11.28938755 512.8284483 C-28.19017892 512.87156774 -45.09086982 512.89225731 -61.99171758 512.88966697 C-71.47571471 512.88867202 -80.95949579 512.89687077 -90.4434433 512.92920113 C-98.51867314 512.95655342 -106.59358897 512.96301177 -114.66884515 512.94267286 C-118.78594898 512.93289544 -122.90245082 512.93263875 -127.01949692 512.9587326 C-130.79503565 512.98241507 -134.56949801 512.97794879 -138.34501138 512.95188021 C-140.34397449 512.94513587 -142.34297175 512.967695 -144.34180331 512.99159914 C-154.39983077 512.87694434 -162.19171431 509.8540891 -170.2421875 503.828125 C-181.60318721 492.19002774 -181.26649751 477.92187941 -181.14086914 462.59887695 C-181.11737668 459.54025577 -181.12031076 456.48251625 -181.12695312 453.42382812 C-181.10734514 439.26320155 -180.68736655 425.09859439 -176.7421875 411.390625 C-176.53303711 410.65690674 -176.32388672 409.92318848 -176.10839844 409.16723633 C-170.08987617 389.27454718 -159.08169169 373.05208929 -144.8046875 358.203125 C-143.96744141 357.25373047 -143.96744141 357.25373047 -143.11328125 356.28515625 C-124.85435817 336.21464289 -95.99788224 326.62842081 -69.8046875 324.203125 C-69.8046875 315.953125 -69.8046875 307.703125 -69.8046875 299.203125 C-71.80176758 299.21883545 -73.79884766 299.2345459 -75.85644531 299.25073242 C-82.49799373 299.30072209 -89.13955104 299.33369036 -95.78123856 299.35856152 C-99.80315456 299.37413399 -103.82487575 299.39521568 -107.84667969 299.42944336 C-111.73706696 299.46234067 -115.62726835 299.48004109 -119.51778412 299.48775673 C-120.99275381 299.49324633 -122.46771479 299.50396399 -123.94260406 299.52031517 C-142.45932518 299.71719914 -158.1087734 295.15871942 -171.8046875 282.203125 C-179.49716936 274.07107274 -185.14163858 264.88974617 -186.9296875 253.765625 C-187.7453704 250.03193365 -188.09567857 248.66595027 -191.3359375 246.55078125 C-193.42165992 245.72649954 -195.53338798 244.96555673 -197.6640625 244.265625 C-208.02815491 240.75936488 -214.26880981 233.47111041 -219.1171875 224.015625 C-222.18626822 217.74052295 -222.95942581 212.93958554 -222.99755859 205.96899414 C-223.00573608 205.1407312 -223.01391357 204.31246826 -223.02233887 203.45910645 C-223.04713939 200.71883858 -223.06370119 197.97862259 -223.078125 195.23828125 C-223.08344868 194.29834257 -223.08877235 193.35840389 -223.09425735 192.38998222 C-223.12097428 187.40835258 -223.14034808 182.42674778 -223.15478516 177.44506836 C-223.16808425 173.34132397 -223.19586435 169.23808156 -223.23681641 165.13452148 C-223.28641992 160.16314561 -223.3109407 155.19222239 -223.31801224 150.22060966 C-223.32468177 148.33615615 -223.33979009 146.45171102 -223.36390305 144.56739998 C-223.52942533 130.84221919 -222.76509878 119.72156006 -213.4921875 108.765625 C-207.55686664 102.73268374 -202.56703408 98.74709472 -194.4921875 96.078125 C-190.09494091 94.40670687 -190.09494091 94.40670687 -187.58203125 90.64453125 C-187.1359549 88.59044314 -186.74645777 86.5234706 -186.40625 84.44921875 C-183.89926811 70.92128398 -172.89014769 59.51097746 -162.09765625 51.66015625 C-151.62208548 45.0036181 -139.24221988 41.45687306 -126.8046875 42.203125 C-126.6190625 41.543125 -126.4334375 40.883125 -126.2421875 40.203125 C-118.66512316 24.39012115 -100.11283517 18.03514959 -84.6796875 12.578125 C-57.6055405 3.98539364 -28.35714815 0.11214198 0 0 Z " fill="#171717" transform="translate(239.8046875,-0.203125)"/>
<path d="M0 0 C1.05527502 -0.00507454 2.11055003 -0.01014909 3.19780308 -0.0153774 C4.36120069 -0.01587516 5.5245983 -0.01637292 6.72325039 -0.01688576 C7.95607437 -0.02126801 9.18889835 -0.02565027 10.45908064 -0.03016531 C13.88768475 -0.0412364 17.31624321 -0.04777978 20.74485862 -0.05234647 C24.44033759 -0.05830183 28.13579974 -0.06991195 31.83126736 -0.08063698 C40.76005828 -0.10516409 49.68885477 -0.11978941 58.61766902 -0.13269705 C61.1398057 -0.13640902 63.66194184 -0.14038225 66.18407798 -0.14444971 C81.84734025 -0.16968833 97.51060341 -0.19174076 113.17388153 -0.20417786 C116.80235262 -0.20710754 120.43082368 -0.21006921 124.0592947 -0.21308327 C124.96113137 -0.21382932 125.86296803 -0.21457537 126.79213309 -0.21534403 C141.39636284 -0.22799349 156.00047073 -0.26121067 170.60464353 -0.3028851 C185.60005216 -0.34532493 200.59539845 -0.36887533 215.59086698 -0.37409842 C224.00958014 -0.37751042 232.42810293 -0.38924046 240.84675694 -0.42220116 C248.01779721 -0.45023115 255.1886081 -0.46118817 262.3596989 -0.4500057 C266.01674817 -0.44482633 269.6733173 -0.44765786 273.33029652 -0.47247124 C277.30083028 -0.49918643 281.27071323 -0.4868784 285.2413168 -0.47098732 C286.38909936 -0.48486941 287.53688192 -0.49875149 288.71944577 -0.51305425 C298.14912349 -0.42019232 305.18954715 2.10420556 311.86422634 8.88701439 C318.63108537 16.53506144 318.36449266 26.46870983 318.33077908 36.11113548 C318.33649165 37.50346992 318.34345933 38.89579968 318.35157681 40.28812218 C318.36942686 44.04654071 318.36835517 47.80472473 318.36263442 51.56317282 C318.35953027 54.71151532 318.36564868 57.85981357 318.37167317 61.00814974 C318.38569042 68.44144201 318.3841809 75.87461928 318.37277126 83.30791283 C318.36129651 90.95209123 318.37536112 98.59591852 318.40216774 106.24005067 C318.42438898 112.82551254 318.4309476 119.41086471 318.42509133 125.99636137 C318.4217354 129.91967789 318.42404508 133.8427695 318.44134235 137.76605415 C318.45691213 141.45823607 318.45274635 145.14990165 318.43403721 148.8420639 C318.42864791 150.82585158 318.44278931 152.809663 318.4577322 154.79340172 C318.38520322 163.68304796 317.13385766 172.16289772 311.73922634 179.51201439 C305.640906 185.20378005 299.14277812 188.25464164 290.80849171 188.27123547 C289.76864262 188.27569331 288.72879353 188.28015115 287.65743387 188.28474408 C285.94588882 188.28446754 285.94588882 188.28446754 284.19976711 188.28418541 C282.37987615 188.28970044 282.37987615 188.28970044 280.5232197 188.29532689 C277.15388061 188.30444656 273.78459019 188.30906184 270.41524339 188.3117162 C266.78181563 188.31562263 263.14840194 188.32520074 259.51498318 188.33392906 C250.73936991 188.35368399 241.9637555 188.36375849 233.18812555 188.37265685 C229.05420446 188.37704138 224.92028464 188.38240777 220.78636456 188.38764572 C207.04197804 188.4046571 193.29759233 188.41915088 179.55319691 188.42639446 C175.98711426 188.42830432 172.42103162 188.43022465 168.854949 188.4321804 C167.96863091 188.43266414 167.08231281 188.43314789 166.1691366 188.43364628 C151.81395137 188.44194517 137.45884951 188.46728009 123.10370068 188.49976108 C108.36138231 188.53284582 93.61910628 188.55084451 78.87675059 188.5540387 C70.60116475 188.5562025 62.32570049 188.56493203 54.05015087 188.59049988 C47.00175662 188.61222622 39.95351348 188.62024782 32.90508954 188.6105331 C29.31088179 188.60599394 25.71698569 188.60785174 22.12282085 188.62729454 C18.22028115 188.64822254 14.31816867 188.63792296 10.41558743 188.62476158 C9.28794173 188.63573083 8.16029603 188.64670007 6.99847925 188.65800172 C-1.58674485 188.58820618 -8.1566348 186.64957516 -15.38577366 182.01201439 C-21.42318823 175.55338485 -24.18871583 168.02100958 -24.21371555 159.28772545 C-24.2194257 158.0920092 -24.22513584 156.89629295 -24.23101902 155.66434288 C-24.23213688 154.35570778 -24.23325474 153.04707268 -24.23440647 151.69878197 C-24.23903688 150.30394421 -24.24406184 148.90910772 -24.24945164 147.51427269 C-24.26255831 143.72683644 -24.26901749 139.9394179 -24.2734623 136.15196252 C-24.27639651 133.78328098 -24.28050203 131.41460425 -24.28496647 129.04592514 C-24.29863836 121.62794798 -24.30830588 114.20998185 -24.31216836 106.79199296 C-24.31664507 98.24226678 -24.33417618 89.6927008 -24.36316895 81.14302331 C-24.38482423 74.52629294 -24.39487473 67.9096075 -24.39620948 61.29284209 C-24.39725498 57.34494563 -24.40310802 53.39719982 -24.42102909 49.44934082 C-24.43757593 45.73188636 -24.43963348 42.01469471 -24.43089008 38.29721642 C-24.42975943 36.29390099 -24.44342657 34.29059403 -24.45764256 32.28732872 C-24.41010925 21.96142753 -23.09983152 14.49091406 -15.91311741 6.86357689 C-11.09478439 2.34191405 -6.69786658 0.01708134 0 0 Z " fill="#364755" transform="translate(109.07327365875244,76.86298561096191)"/>
<path d="M0 0 C1.68037134 -0.00435755 3.3607407 -0.00954413 5.04110718 -0.01548767 C9.56814953 -0.02877737 14.09510789 -0.02946758 18.62216592 -0.02692437 C22.41889835 -0.02584773 26.21561425 -0.03075567 30.01234311 -0.03552979 C38.97910742 -0.04659048 47.94582984 -0.04708193 56.91259766 -0.04101562 C66.12333392 -0.0349795 75.33391729 -0.04728562 84.54462749 -0.06858569 C92.4890328 -0.08627314 100.43338975 -0.09219181 108.37781399 -0.08894795 C113.10658159 -0.08714618 117.83524011 -0.08965957 122.56398964 -0.10366249 C127.01535889 -0.11635307 131.46649198 -0.1141921 135.91785812 -0.1012516 C137.53821967 -0.09891042 139.15859844 -0.10153057 140.7789402 -0.10987473 C154.69316279 -0.176282 168.2312046 1.14594228 181.2097168 6.5871582 C181.96333496 6.89347168 182.71695312 7.19978516 183.4934082 7.51538086 C209.9379853 18.47577544 229.4458594 38.07635743 241.0246582 64.1394043 C246.05857962 76.45800438 248.04276833 88.59793365 248.13549805 101.83325195 C248.14356979 102.93637222 248.15164154 104.03949249 248.15995789 105.17604065 C248.17374244 107.50162204 248.18448956 109.82722318 248.19238281 112.15283203 C248.20393038 114.52398635 248.22442553 116.89511412 248.25390625 119.26611328 C248.29662509 122.70533786 248.3127548 126.14379488 248.32299805 129.58325195 C248.34050613 130.63556503 248.35801422 131.68787811 248.37605286 132.77207947 C248.35762698 139.05682668 247.69687876 144.10505111 243.8972168 149.2746582 C239.12800035 153.07056517 235.52556308 154.40195419 229.5078125 154.38818359 C228.40689774 154.38810806 227.30598297 154.38803253 226.17170715 154.38795471 C224.98413315 154.38279343 223.79655914 154.37763214 222.57299805 154.37231445 C220.7481916 154.37019203 220.7481916 154.37019203 218.88652039 154.36802673 C214.99422769 154.36242132 211.10199215 154.34986787 207.2097168 154.3371582 C204.57364992 154.3321439 201.93758214 154.32758087 199.30151367 154.32348633 C192.83339516 154.31245013 186.36531006 154.2957067 179.8972168 154.2746582 C179.89579178 153.47001129 179.89436676 152.66536438 179.89289856 151.83633423 C179.87499506 144.21616288 179.83316602 136.59666107 179.76512623 128.97678566 C179.73098014 125.06021238 179.70576574 121.14402403 179.70166016 117.22729492 C179.6973503 113.44029838 179.66866881 109.6541683 179.62378502 105.86744308 C179.61089502 104.42997682 179.60647191 102.9924064 179.611063 101.55488968 C179.63215552 92.93739498 179.15362562 85.46225964 173.8972168 78.2746582 C167.50659998 72.1586516 161.15915391 69.96520998 152.32009888 70.01396179 C151.57741032 70.01013624 150.83472177 70.0063107 150.06952751 70.00236923 C147.59160755 69.99208599 145.11392134 69.99602243 142.63598633 70 C140.85499864 69.99565092 139.07401283 69.99046711 137.29302979 69.98451233 C132.46240236 69.97113175 127.63185322 69.97054265 122.80121088 69.97307563 C118.76548442 69.97414605 114.72977375 69.96926012 110.69405067 69.96447021 C101.17110312 69.95337812 91.64819502 69.95293584 82.12524414 69.95898438 C72.30840275 69.96502381 62.49170471 69.95271321 52.67488778 69.93141431 C44.23988276 69.91378784 35.80492333 69.90779863 27.36990058 69.91105205 C22.33500195 69.91286349 17.30020556 69.91024264 12.26532364 69.89633751 C7.52926716 69.88374693 2.79343379 69.88571495 -1.94261932 69.8987484 C-3.67760163 69.9011111 -5.4125997 69.89839049 -7.14756393 69.89012527 C-9.52253228 69.87962982 -11.89675582 69.88778036 -14.271698 69.9004364 C-15.29283371 69.88937497 -15.29283371 69.88937497 -16.33459842 69.87809008 C-23.10439417 69.95358739 -29.68713594 72.00181372 -34.73127747 76.67105103 C-41.60612801 84.70934016 -41.84197074 93.62026455 -41.80981445 103.6887207 C-41.82295552 105.15418531 -41.83826707 106.6196319 -41.8556366 108.08505249 C-41.89521911 111.9089325 -41.90565952 115.73233585 -41.90966797 119.55639648 C-41.91905044 123.47174292 -41.95649539 127.38681514 -41.99145508 131.30200195 C-42.05575772 138.95955688 -42.08922129 146.61682725 -42.1027832 154.2746582 C-49.93138225 154.40177205 -57.75971367 154.48914211 -65.58911133 154.54931641 C-68.25106337 154.5715803 -70.91166165 154.60848462 -73.57348633 154.65185547 C-77.40634106 154.71272854 -81.23828208 154.74092098 -85.0715332 154.76293945 C-86.25517456 154.78874588 -87.43881592 154.81455231 -88.6583252 154.84114075 C-95.62600886 154.84348902 -101.00188366 154.36903404 -106.1027832 149.2746582 C-110.5981481 143.53530794 -110.67975354 137.40741764 -110.59887695 130.37231445 C-110.60033218 129.33634628 -110.60178741 128.30037811 -110.60328674 127.23301697 C-110.60163273 125.04528996 -110.59012752 122.85755071 -110.56933594 120.66992188 C-110.54064044 117.37813806 -110.54868802 114.0879952 -110.56176758 110.79614258 C-110.53017399 77.85803676 -101.73868031 52.41049887 -78.6652832 28.5246582 C-67.4207767 17.56009792 -53.78978723 9.94389123 -38.9777832 4.8996582 C-38.2868457 4.66110107 -37.5959082 4.42254395 -36.8840332 4.17675781 C-24.83018803 0.30210754 -12.53427939 -0.02171472 0 0 Z " fill="#DBE4E6" transform="translate(187.102783203125,340.725341796875)"/>
<path d="M0 0 C1.48117813 -0.00299103 1.48117813 -0.00299103 2.99227905 -0.00604248 C38.06826053 0.00201011 75.10988537 4.05225721 107.6875 17.875 C108.34314941 18.14739502 108.99879883 18.41979004 109.67431641 18.70043945 C113.97992762 20.61073866 116.70499802 23.00591343 119.9375 26.375 C118.57333214 26.38134791 118.57333214 26.38134791 117.18160534 26.38782406 C95.07408519 26.49103497 72.96659746 26.5996583 50.85913372 26.71433926 C40.16822599 26.76966647 29.47731493 26.82314766 18.78637695 26.87231445 C9.47043002 26.91516242 0.15450761 26.96144198 -9.16140145 27.01187855 C-14.09613696 27.03847453 -19.03086763 27.06332752 -23.96563148 27.08407402 C-28.60715758 27.10364185 -33.24863702 27.12778613 -37.89012146 27.15549088 C-39.59655092 27.16486052 -41.30299061 27.17253612 -43.00943565 27.17841911 C-45.33371915 27.18668174 -47.65788946 27.20095888 -49.98213196 27.21678162 C-51.28462544 27.22323417 -52.58711893 27.22968672 -53.92908192 27.2363348 C-57.09310916 27.23299365 -57.09310916 27.23299365 -60.0625 28.375 C-60.36806226 29.76364434 -60.63050808 31.16181264 -60.875 32.5625 C-61.10123047 33.72845703 -61.10123047 33.72845703 -61.33203125 34.91796875 C-61.25239547 37.5918766 -61.25239547 37.5918766 -59.07060623 39.98987389 C-55.2576215 43.01318781 -52.32841337 43.06966665 -47.66326904 42.99404907 C-46.82005167 43.00028805 -45.9768343 43.00652703 -45.10806489 43.01295507 C-42.2834792 43.02787285 -39.46027699 43.00722868 -36.63574219 42.98681641 C-34.61021942 42.99035745 -32.5846995 42.99613485 -30.55918884 43.00398254 C-26.19711878 43.01616774 -21.83543968 43.01268666 -17.47338104 42.99715042 C-10.57298238 42.97285061 -3.67292661 42.9843227 3.22747803 43.00082397 C15.38955439 43.02533189 27.55147522 43.01951538 39.71356201 43.00701904 C58.0104698 42.98844965 76.30734752 42.99331019 94.6042335 43.02705324 C101.46022705 43.03855556 108.31597123 43.03414325 115.17195082 43.01703286 C119.44329148 43.00912092 123.71455998 43.01339561 127.98589897 43.02074242 C129.96234813 43.02155096 131.9388073 43.01722409 133.9152317 43.00729942 C136.62047379 42.99437577 139.32509334 42.99998523 142.03033447 43.00991821 C142.8061346 43.00166004 143.58193472 42.99340186 144.38124394 42.98489344 C155.48803537 43.08108071 165.55873679 47.96573525 173.625 55.4375 C184.20012502 66.5118005 186.24020904 78.90759331 186.22802734 93.54931641 C186.23401848 94.98736925 186.24082537 96.42541889 186.24838257 97.86346436 C186.26599515 101.75637787 186.27073608 105.64920337 186.27201414 109.54215288 C186.27343955 111.9800701 186.27771662 114.41796521 186.28300858 116.85587692 C186.30149664 125.37772786 186.30968115 133.89951639 186.30810547 142.42138672 C186.30690599 150.33698715 186.32797334 158.25231407 186.3595928 166.16784537 C186.38584448 172.98513133 186.39646898 179.8023285 186.39519465 186.61966455 C186.39468741 190.68169747 186.40023701 194.74348741 186.42155075 198.80546951 C186.44108257 202.63221079 186.44095711 206.45848114 186.42651749 210.28524017 C186.4244463 211.67949242 186.42902787 213.0737753 186.4412384 214.46797562 C186.55666643 228.57621814 183.60008454 241.87432028 173.9375 252.59375 C163.03492606 263.02907077 150.20782988 265.68402783 135.6156311 265.63569641 C134.3867021 265.63952196 133.1577731 265.64334751 131.89160383 265.64728898 C128.49703641 265.65579777 125.10268657 265.6553947 121.70812559 265.65110838 C118.04068085 265.64863583 114.37326126 265.65766189 110.70582581 265.66514587 C103.52729642 265.67788021 96.34880447 265.67968814 89.17026569 265.67734561 C83.3338673 265.67556087 77.49748025 265.67731543 71.66108322 265.68157005 C70.41396434 265.68246284 70.41396434 265.68246284 69.14165115 265.68337366 C67.45250373 265.68458544 65.76335631 265.68579957 64.0742089 265.68701603 C48.241493 265.6978867 32.40879842 265.69573132 16.57608132 265.68963119 C2.1015327 265.68446248 -12.37294861 265.69571709 -26.84748392 265.71472941 C-41.72101506 265.73411557 -56.59451437 265.74236244 -71.46805823 265.73860615 C-79.8139776 265.73669529 -88.1598397 265.7391705 -96.50574875 265.75332069 C-103.61076257 265.76524539 -110.71568384 265.76662719 -117.82069896 265.75453053 C-121.44323024 265.74864946 -125.06559233 265.74752088 -128.68811226 265.75953293 C-132.62104619 265.77242236 -136.55372495 265.76190888 -140.48666382 265.7492218 C-141.62325388 265.75659609 -142.75984395 265.76397037 -143.93087614 265.77156812 C-157.1692954 265.68185949 -168.43885043 261.40854284 -178.21484375 252.37109375 C-188.49462392 241.26545386 -190.67508553 227.05074258 -190.56420898 212.47192383 C-190.56800297 211.02811662 -190.57351183 209.58431307 -190.58058167 208.14051819 C-190.59440937 204.26041665 -190.58345879 200.38076482 -190.56687045 196.50068879 C-190.55290216 192.41880686 -190.55949301 188.33694794 -190.56300354 184.25505066 C-190.56569552 177.40702156 -190.55231456 170.55916877 -190.52905273 163.71118164 C-190.50241742 155.81587176 -190.50070982 147.92085579 -190.5124411 140.02551633 C-190.52325064 132.39714253 -190.51700901 124.76887411 -190.50288582 117.14050865 C-190.49715671 113.9082964 -190.49718422 110.67616204 -190.50195122 107.44394875 C-190.50675279 103.6343983 -190.49648911 99.82516645 -190.47499657 96.0156765 C-190.46947272 94.62501474 -190.46892248 93.23432209 -190.47394943 91.84365845 C-190.5209433 76.96890828 -187.16792946 65.68943187 -176.9375 54.625 C-169.41031215 47.4173023 -160.35075597 43.29270988 -149.98046875 43.20141602 C-148.75239502 43.18792618 -147.52432129 43.17443634 -146.2590332 43.16053772 C-145.60585114 43.15547777 -144.95266907 43.15041782 -144.2796936 43.14520454 C-142.22828383 43.12873187 -140.17705264 43.10549355 -138.12573242 43.08030701 C-132.29517573 43.00969181 -126.46454827 42.94937708 -120.63378906 42.89819336 C-117.06291227 42.86637426 -113.49224565 42.82509809 -109.92153931 42.77799797 C-108.56283345 42.76200338 -107.20407931 42.74967006 -105.8453064 42.74109077 C-103.94497057 42.728915 -102.04473161 42.70372871 -100.14453125 42.67797852 C-99.06405518 42.66767105 -97.9835791 42.65736359 -96.87036133 42.64674377 C-94.06255175 42.37500501 -92.42030787 41.88568735 -90.0625 40.375 C-88.14050886 37.81234514 -88.05221364 36.54301051 -88.25 33.3125 C-89.12563892 30.14672851 -89.43103382 29.23756411 -92.0625 27.375 C-94.56978032 27.0442937 -96.84387387 26.8867282 -99.35546875 26.86328125 C-100.06149734 26.84533005 -100.76752594 26.82737885 -101.49494934 26.80888367 C-103.74657241 26.75476822 -105.99798343 26.72088278 -108.25 26.6875 C-109.77802431 26.65432781 -111.30602063 26.61983823 -112.83398438 26.58398438 C-116.57666989 26.49904175 -120.31929241 26.43223752 -124.0625 26.375 C-97.30098772 -1.47236163 -35.58340673 0.01883034 0 0 Z M-169.0625 71.375 C-172.41118235 76.95613724 -173.18313001 81.89913757 -173.20967102 88.33108521 C-173.21682632 89.5252858 -173.22398163 90.71948639 -173.23135376 91.94987488 C-173.23404266 93.25177261 -173.23673157 94.55367035 -173.23950195 95.89501953 C-173.24577195 97.28676013 -173.25241923 98.67849907 -173.25941467 100.07023621 C-173.28039697 104.63274991 -173.2908129 109.19526372 -173.30078125 113.7578125 C-173.30483125 115.33290499 -173.30894824 116.90799731 -173.31313133 118.48308945 C-173.3321717 125.88611405 -173.34640408 133.28912876 -173.3547433 140.69217312 C-173.36450597 149.21644671 -173.39080482 157.74045996 -173.43124419 166.26464188 C-173.46148313 172.86698528 -173.47621959 179.46925438 -173.47952431 186.07166564 C-173.48186628 190.00848775 -173.49071445 193.94503137 -173.51598549 197.88177872 C-173.53940752 201.59027915 -173.54344345 205.29832053 -173.53322411 209.00687599 C-173.53249919 211.00027549 -173.55149123 212.99365242 -173.57128906 214.98695374 C-173.52017684 223.90179263 -172.28422308 232.37902322 -166.875 239.75 C-160.77667965 245.44176566 -154.27855178 248.49262725 -145.94426537 248.50922108 C-144.90441628 248.51367892 -143.86456719 248.51813676 -142.79320753 248.52272969 C-141.08166248 248.52245315 -141.08166248 248.52245315 -139.33554077 248.52217102 C-138.12228013 248.52584771 -136.90901948 248.5295244 -135.65899336 248.5333125 C-132.28965427 248.54243217 -128.92036385 248.54704746 -125.55101705 248.54970181 C-121.91758929 248.55360824 -118.2841756 248.56318635 -114.65075684 248.57191467 C-105.87514356 248.5916696 -97.09952916 248.6017441 -88.32389921 248.61064246 C-84.18997811 248.61502699 -80.0560583 248.62039338 -75.92213821 248.62563133 C-62.1777517 248.64264271 -48.43336599 248.65713649 -34.68897057 248.66438007 C-31.12288792 248.66628993 -27.55680528 248.66821027 -23.99072266 248.67016602 C-23.10440456 248.67064976 -22.21808647 248.6711335 -21.30491026 248.6716319 C-6.94972503 248.67993078 7.40537683 248.7052657 21.76052566 248.73774669 C36.50284403 248.77083143 51.24512006 248.78883012 65.98747575 248.79202431 C74.26306159 248.79418811 82.53852585 248.80291764 90.81407547 248.82848549 C97.86246972 248.85021183 104.91071286 248.85823343 111.9591368 248.84851871 C115.55334455 248.84397955 119.14724065 248.84583736 122.74140549 248.86528015 C126.64394519 248.88620815 130.54605767 248.87590857 134.44863892 248.86274719 C136.14010746 248.87920106 136.14010746 248.87920106 137.86574709 248.89598733 C146.45097119 248.82619179 153.02086114 246.88756078 160.25 242.25 C166.28741457 235.79137046 169.05294217 228.25899519 169.07794189 219.52571106 C169.08365204 218.32999481 169.08936218 217.13427856 169.09524536 215.90232849 C169.09636322 214.59369339 169.09748108 213.28505829 169.09863281 211.93676758 C169.10326322 210.54192982 169.10828818 209.14709333 169.11367798 207.7522583 C169.12678465 203.96482205 169.13324384 200.17740351 169.13768864 196.38994813 C169.14062285 194.02126659 169.14472837 191.65258986 169.14919281 189.28391075 C169.1628647 181.86593359 169.17253222 174.44796746 169.1763947 167.02997857 C169.18087141 158.48025239 169.19840252 149.93068641 169.2273953 141.38100892 C169.24905057 134.76427855 169.25910107 128.14759312 169.26043582 121.5308277 C169.26148132 117.58293124 169.26733436 113.63518543 169.28525543 109.68732643 C169.30180227 105.96987197 169.30385982 102.25268032 169.29511642 98.53520203 C169.29398577 96.5318866 169.30765291 94.52857964 169.3218689 92.52531433 C169.27653885 82.67803772 168.19862498 74.53549943 161.08534467 67.30613989 C153.68575225 60.65312244 145.90687813 59.64730374 136.28573608 59.74681091 C135.04552 59.73971653 133.80530391 59.73262214 132.52750552 59.72531277 C129.11036544 59.71082672 125.69462595 59.71856207 122.27759027 59.7360357 C118.58292636 59.74946383 114.88836434 59.73395335 111.19371033 59.72221375 C103.96657856 59.70387426 96.73971789 59.71232416 89.51259468 59.73030197 C83.63807294 59.74434897 77.7636246 59.74821627 71.88908768 59.7448597 C71.0518179 59.74438225 70.21454813 59.74390481 69.35190655 59.7434129 C67.65083672 59.74238654 65.94976691 59.74133118 64.24869712 59.74024714 C49.22140801 59.73168782 34.19424951 59.74833124 19.16699219 59.77807617 C4.59369422 59.80692203 -9.97941568 59.81399124 -24.55273438 59.79858398 C-40.43502187 59.78181577 -56.31722015 59.77779314 -72.19950998 59.79529434 C-73.89357971 59.79713868 -75.58764945 59.79897341 -77.28171921 59.80079842 C-78.53189396 59.80216655 -78.53189396 59.80216655 -79.80732477 59.80356232 C-85.67421436 59.80916307 -91.54106032 59.80586495 -97.40794754 59.79925346 C-104.558395 59.79151513 -111.70865747 59.79829111 -118.85906769 59.8234285 C-122.50570042 59.83591086 -126.15204534 59.84208556 -129.79868889 59.83088684 C-133.75420422 59.81896905 -137.70922462 59.83812874 -141.66470337 59.8603363 C-142.81353677 59.85209554 -143.96237018 59.84385477 -145.14601672 59.83536428 C-155.55123237 59.94327858 -162.41953346 63.26952359 -169.0625 71.375 Z " fill="#D9E2E4" transform="translate(258.0625,16.625)"/>
<path d="M0 0 C1.05527502 -0.00507454 2.11055003 -0.01014909 3.19780308 -0.0153774 C4.36120069 -0.01587516 5.5245983 -0.01637292 6.72325039 -0.01688576 C7.95607437 -0.02126801 9.18889835 -0.02565027 10.45908064 -0.03016531 C13.88768475 -0.0412364 17.31624321 -0.04777978 20.74485862 -0.05234647 C24.44033759 -0.05830183 28.13579974 -0.06991195 31.83126736 -0.08063698 C40.76005828 -0.10516409 49.68885477 -0.11978941 58.61766902 -0.13269705 C61.1398057 -0.13640902 63.66194184 -0.14038225 66.18407798 -0.14444971 C81.84734025 -0.16968833 97.51060341 -0.19174076 113.17388153 -0.20417786 C116.80235262 -0.20710754 120.43082368 -0.21006921 124.0592947 -0.21308327 C124.96113137 -0.21382932 125.86296803 -0.21457537 126.79213309 -0.21534403 C141.39636284 -0.22799349 156.00047073 -0.26121067 170.60464353 -0.3028851 C185.60005216 -0.34532493 200.59539845 -0.36887533 215.59086698 -0.37409842 C224.00958014 -0.37751042 232.42810293 -0.38924046 240.84675694 -0.42220116 C248.01779721 -0.45023115 255.1886081 -0.46118817 262.3596989 -0.4500057 C266.01674817 -0.44482633 269.6733173 -0.44765786 273.33029652 -0.47247124 C277.30083028 -0.49918643 281.27071323 -0.4868784 285.2413168 -0.47098732 C286.38909936 -0.48486941 287.53688192 -0.49875149 288.71944577 -0.51305425 C298.14912349 -0.42019232 305.18954715 2.10420556 311.86422634 8.88701439 C318.63108537 16.53506144 318.36449266 26.46870983 318.33077908 36.11113548 C318.33649165 37.50346992 318.34345933 38.89579968 318.35157681 40.28812218 C318.36942686 44.04654071 318.36835517 47.80472473 318.36263442 51.56317282 C318.35953027 54.71151532 318.36564868 57.85981357 318.37167317 61.00814974 C318.38569042 68.44144201 318.3841809 75.87461928 318.37277126 83.30791283 C318.36129651 90.95209123 318.37536112 98.59591852 318.40216774 106.24005067 C318.42438898 112.82551254 318.4309476 119.41086471 318.42509133 125.99636137 C318.4217354 129.91967789 318.42404508 133.8427695 318.44134235 137.76605415 C318.45691213 141.45823607 318.45274635 145.14990165 318.43403721 148.8420639 C318.42864791 150.82585158 318.44278931 152.809663 318.4577322 154.79340172 C318.38520322 163.68304796 317.13385766 172.16289772 311.73922634 179.51201439 C305.640906 185.20378005 299.14277812 188.25464164 290.80849171 188.27123547 C289.76864262 188.27569331 288.72879353 188.28015115 287.65743387 188.28474408 C285.94588882 188.28446754 285.94588882 188.28446754 284.19976711 188.28418541 C282.37987615 188.28970044 282.37987615 188.28970044 280.5232197 188.29532689 C277.15388061 188.30444656 273.78459019 188.30906184 270.41524339 188.3117162 C266.78181563 188.31562263 263.14840194 188.32520074 259.51498318 188.33392906 C250.73936991 188.35368399 241.9637555 188.36375849 233.18812555 188.37265685 C229.05420446 188.37704138 224.92028464 188.38240777 220.78636456 188.38764572 C207.04197804 188.4046571 193.29759233 188.41915088 179.55319691 188.42639446 C175.98711426 188.42830432 172.42103162 188.43022465 168.854949 188.4321804 C167.96863091 188.43266414 167.08231281 188.43314789 166.1691366 188.43364628 C151.81395137 188.44194517 137.45884951 188.46728009 123.10370068 188.49976108 C108.36138231 188.53284582 93.61910628 188.55084451 78.87675059 188.5540387 C70.60116475 188.5562025 62.32570049 188.56493203 54.05015087 188.59049988 C47.00175662 188.61222622 39.95351348 188.62024782 32.90508954 188.6105331 C29.31088179 188.60599394 25.71698569 188.60785174 22.12282085 188.62729454 C18.22028115 188.64822254 14.31816867 188.63792296 10.41558743 188.62476158 C9.28794173 188.63573083 8.16029603 188.64670007 6.99847925 188.65800172 C-1.58674485 188.58820618 -8.1566348 186.64957516 -15.38577366 182.01201439 C-21.42318823 175.55338485 -24.18871583 168.02100958 -24.21371555 159.28772545 C-24.2194257 158.0920092 -24.22513584 156.89629295 -24.23101902 155.66434288 C-24.23213688 154.35570778 -24.23325474 153.04707268 -24.23440647 151.69878197 C-24.23903688 150.30394421 -24.24406184 148.90910772 -24.24945164 147.51427269 C-24.26255831 143.72683644 -24.26901749 139.9394179 -24.2734623 136.15196252 C-24.27639651 133.78328098 -24.28050203 131.41460425 -24.28496647 129.04592514 C-24.29863836 121.62794798 -24.30830588 114.20998185 -24.31216836 106.79199296 C-24.31664507 98.24226678 -24.33417618 89.6927008 -24.36316895 81.14302331 C-24.38482423 74.52629294 -24.39487473 67.9096075 -24.39620948 61.29284209 C-24.39725498 57.34494563 -24.40310802 53.39719982 -24.42102909 49.44934082 C-24.43757593 45.73188636 -24.43963348 42.01469471 -24.43089008 38.29721642 C-24.42975943 36.29390099 -24.44342657 34.29059403 -24.45764256 32.28732872 C-24.41010925 21.96142753 -23.09983152 14.49091406 -15.91311741 6.86357689 C-11.09478439 2.34191405 -6.69786658 0.01708134 0 0 Z M-6.07327366 21.13701439 C-7.38961411 23.76969529 -7.21121932 25.74056234 -7.22717381 28.69005394 C-7.23577427 29.87052803 -7.24437473 31.05100212 -7.25323582 32.26724815 C-7.25749577 33.56908546 -7.26175571 34.87092278 -7.26614475 36.2122097 C-7.27404518 37.5919166 -7.28231409 38.97162143 -7.29092503 40.35132408 C-7.31715428 44.88924242 -7.33245455 49.42717002 -7.34671116 53.96513939 C-7.35207066 55.52702656 -7.35744817 57.08891366 -7.36284351 58.6508007 C-7.38447446 65.14811084 -7.4032109 71.64541847 -7.4144659 78.14275551 C-7.43070294 87.45508637 -7.46387182 96.76699983 -7.52086675 106.07917333 C-7.5595713 112.62617476 -7.57909924 119.17306458 -7.58438647 125.72017741 C-7.58803957 129.63068774 -7.60005536 133.54075297 -7.6324892 137.45113945 C-7.66257908 141.13174927 -7.66887899 144.81164493 -7.65710545 148.49235153 C-7.65677974 150.48319116 -7.68123998 152.47398676 -7.70648289 154.46466637 C-7.69816441 155.65641975 -7.68984592 156.84817314 -7.68127537 158.07604027 C-7.68458551 159.10769436 -7.68789566 160.13934845 -7.69130611 161.20226479 C-7.03067917 164.33927586 -6.09256395 166.58917792 -3.89178813 168.96361947 C0.15751456 171.5764286 5.15469662 170.95347103 9.80758572 170.89891624 C11.02522861 170.90827619 12.24287151 170.91763613 13.49741268 170.92727971 C16.87483919 170.94707925 20.25026505 170.93994725 23.62757015 170.9213624 C27.27049058 170.90779507 30.91323528 170.92873686 34.55612087 170.94524193 C41.69138439 170.97193617 48.82626944 170.96615284 55.96154785 170.94876608 C61.75994952 170.93522131 67.55824504 170.93337563 73.35665798 170.93990898 C74.18159457 170.94082838 75.00653115 170.94174778 75.85646582 170.94269504 C77.53225552 170.94461337 79.2080452 170.94655865 80.88383484 170.94853058 C96.6015295 170.96564407 112.31901426 170.94596137 128.0366745 170.91372839 C141.5261719 170.88692135 155.01535953 170.89157738 168.50485134 170.91924095 C184.1658911 170.95134274 199.82674684 170.96399608 215.4878149 170.94556737 C217.15747481 170.94365605 218.82713474 170.94176983 220.4967947 170.93990898 C221.31832106 170.93898333 222.13984742 170.93805768 222.98626852 170.93710397 C228.77839636 170.93192119 234.57040758 170.94067249 240.36251736 170.9547863 C247.4202881 170.97160598 254.47765842 170.96707875 261.53538322 170.93510184 C265.1371855 170.9193213 268.73831996 170.91317654 272.34011745 170.93299675 C276.24241245 170.95414595 280.14361149 170.92891264 284.04586697 170.89891624 C285.18739475 170.91230057 286.32892254 170.92568491 287.50504208 170.93947482 C292.88981269 170.96017031 292.88981269 170.96017031 297.7445311 168.96290976 C300.82247245 165.63953518 301.55240472 162.49732328 301.55491543 158.09622765 C301.56756939 156.90880974 301.58022335 155.72139183 301.59326077 154.49799156 C301.58156857 153.20896431 301.56987637 151.91993706 301.55782986 150.59184837 C301.56297227 149.20992172 301.57025599 147.82800164 301.5795126 146.44609642 C301.59799271 142.70425165 301.58511091 138.96312139 301.5654223 135.22130656 C301.54900936 131.30119766 301.55785221 127.38113308 301.56294155 123.46100426 C301.56745904 116.8796659 301.55161294 110.29861208 301.52365017 103.71733665 C301.49158631 96.11226973 301.49162015 88.50771554 301.50886494 80.90261215 C301.524736 73.58015361 301.51799367 66.25788277 301.50092793 58.93543243 C301.49406171 55.8218701 301.49508535 52.70845841 301.50247288 49.59489822 C301.51014193 45.92817017 301.4979903 42.26202478 301.47062397 38.59539604 C301.46046866 36.61045712 301.46991572 34.62544819 301.479949 32.64050865 C301.46722454 31.45591057 301.45450008 30.27131248 301.44139004 29.05081749 C301.43858312 28.02343688 301.4357762 26.99605627 301.43288422 25.93754292 C300.79338528 22.39924962 299.38451062 20.71229995 296.92672634 18.13701439 C294.45766451 16.90248347 292.8343199 17.00830946 290.07185555 17.00279331 C288.52388001 16.99610655 288.52388001 16.99610655 286.94463223 16.98928469 C285.80214782 16.98946906 284.6596634 16.98965342 283.48255825 16.98984337 C282.27564573 16.98616668 281.06873321 16.98248999 279.82524759 16.97870189 C276.46453982 16.96956289 273.10388094 16.96496271 269.74316537 16.96231258 C266.12274976 16.95841398 262.50234836 16.94883538 258.8819418 16.94009972 C250.13369959 16.9203233 241.3854562 16.91026787 232.63719723 16.90137193 C228.52006086 16.89699119 224.40292579 16.89162384 220.28579044 16.88638306 C206.6040969 16.86937004 192.92240417 16.8548749 179.24070168 16.84763432 C175.68902174 16.84572434 172.1373418 16.84380402 168.58566189 16.84184837 C167.70288247 16.84136463 166.82010305 16.84088089 165.91057274 16.84038249 C151.60361468 16.83207858 137.29674012 16.80673592 122.98981854 16.7742677 C108.30973829 16.74122351 93.62970052 16.72318797 78.94958287 16.71999007 C70.70374901 16.71782258 62.45803695 16.70903908 54.21223927 16.6835289 C47.19110181 16.66185796 40.17011574 16.65375363 33.14894863 16.66349568 C29.56550043 16.66805086 25.9823648 16.66608413 22.39895916 16.64673424 C18.51645692 16.62594997 14.63438892 16.63605421 10.75184536 16.6492672 C9.04815699 16.63281333 9.04815699 16.63281333 7.31005067 16.61602706 C-0.23069676 16.62821233 -0.23069676 16.62821233 -6.07327366 21.13701439 Z " fill="#191919" transform="translate(109.07327365875244,76.86298561096191)"/>
<path d="M0 0 C1.09142492 -0.01169993 1.09142492 -0.01169993 2.20489883 -0.02363622 C4.63809396 -0.04354801 7.06972353 -0.02779642 9.50292969 -0.01205444 C11.24923617 -0.01883098 12.9955355 -0.02773432 14.74182129 -0.03860474 C19.48155739 -0.06140045 24.22074937 -0.05256066 28.960495 -0.03670931 C33.92029285 -0.02405173 38.88004407 -0.03579003 43.83984375 -0.04364014 C52.16903042 -0.05273711 60.49799542 -0.04074752 68.82714844 -0.01693726 C78.45726917 0.0102741 88.08686063 0.00145997 97.71696854 -0.02606928 C105.98464107 -0.04875797 114.25215426 -0.05196161 122.51984787 -0.03887594 C127.45802232 -0.03108011 132.39594797 -0.03004347 137.33410645 -0.04655838 C141.97674845 -0.06100038 146.61870799 -0.05098652 151.26127625 -0.0220871 C152.96525438 -0.01547481 154.66928994 -0.01737644 156.37324524 -0.02840042 C158.69947558 -0.04206294 161.02351853 -0.02493538 163.34960938 0 C165.3019046 0.00282769 165.3019046 0.00282769 167.29364014 0.00571251 C170.67480469 0.63491821 170.67480469 0.63491821 175.67480469 5.63491821 C175.67480469 26.42491821 175.67480469 47.21491821 175.67480469 68.63491821 C113.63480469 68.63491821 51.59480469 68.63491821 -12.32519531 68.63491821 C-12.32519531 0.01785173 -12.32519531 0.01785173 0 0 Z " fill="#45BAEC" transform="translate(174.3251953125,426.3650817871094)"/>
<path d="M0 0 C10.92320867 7.20772309 18.96294458 17.52328841 22.3125 30.3125 C25.32591383 46.55623549 21.29911085 60.56472633 12.59375 74.203125 C6.91042776 81.5385758 -2.84402751 87.47178979 -12 89 C-25.55825273 90.47282542 -34.26890065 88.07663695 -45.62109375 80.17578125 C-54.04984882 73.39582144 -60.47449671 62.77386695 -62 52 C-62.85601305 41.25465838 -63.15907886 30.74315203 -58 21 C-57.32904297 19.69675781 -57.32904297 19.69675781 -56.64453125 18.3671875 C-50.93358137 8.10891292 -43.10583316 1.35453265 -32.234375 -3.14453125 C-21.99355063 -5.85315509 -9.26411616 -5.24328355 0 0 Z " fill="#161717" transform="translate(361,124)"/>
<path d="M0 0 C11.63863304 7.485496 19.38621983 17.30647313 23.34375 30.72875977 C26.21771466 44.58278549 23.64541651 58.4906421 16.58203125 70.53125 C9.72913794 80.62871912 1.22359545 85.9632286 -10.23046875 89.78125 C-24.6550748 90.87996863 -35.64327931 88.7559848 -46.9765625 79.078125 C-56.87401224 68.99198904 -61.08956652 56.3594165 -61.48046875 42.53125 C-61.3435953 29.25452541 -56.48648563 17.48501984 -47.40234375 7.8203125 C-34.84106884 -3.97282689 -15.8142142 -7.96240155 0 0 Z " fill="#161717" transform="translate(189.23046875,123.21875)"/>
<path d="M0 0 C1.48117813 -0.00299103 1.48117813 -0.00299103 2.99227905 -0.00604248 C38.06826053 0.00201011 75.10988537 4.05225721 107.6875 17.875 C108.34314941 18.14739502 108.99879883 18.41979004 109.67431641 18.70043945 C113.97992762 20.61073866 116.70499802 23.00591343 119.9375 26.375 C119.02805476 26.37923194 118.11860952 26.38346388 117.18160534 26.38782406 C95.07408519 26.49103497 72.96659746 26.5996583 50.85913372 26.71433926 C40.16822599 26.76966647 29.47731493 26.82314766 18.78637695 26.87231445 C9.47043002 26.91516242 0.15450761 26.96144198 -9.16140145 27.01187855 C-14.09613696 27.03847453 -19.03086763 27.06332752 -23.96563148 27.08407402 C-28.60715758 27.10364185 -33.24863702 27.12778613 -37.89012146 27.15549088 C-39.59655092 27.16486052 -41.30299061 27.17253612 -43.00943565 27.17841911 C-45.33371915 27.18668174 -47.65788946 27.20095888 -49.98213196 27.21678162 C-51.28462544 27.22323417 -52.58711893 27.22968672 -53.92908192 27.2363348 C-57.09310916 27.23299365 -57.09310916 27.23299365 -60.0625 28.375 C-61.28770264 31.38347418 -61.28770264 31.38347418 -62.0625 34.375 C-66.14529501 34.54921117 -70.22713681 34.65582588 -74.3125 34.75 C-75.47136719 34.80027344 -76.63023437 34.85054687 -77.82421875 34.90234375 C-86.22360497 35.04799785 -86.22360497 35.04799785 -88.71679688 33.04785156 C-89.796875 31.4140625 -89.796875 31.4140625 -91.0625 28.375 C-92.9855889 26.4519111 -96.53320485 27.12178162 -99.16015625 27.05859375 C-99.86901474 27.03781265 -100.57787323 27.01703156 -101.30821228 26.99562073 C-103.58037305 26.93005402 -105.85265264 26.8712077 -108.125 26.8125 C-109.66212183 26.76932151 -111.1992315 26.72570745 -112.73632812 26.68164062 C-116.5115959 26.57436551 -120.2869836 26.47311863 -124.0625 26.375 C-97.30098772 -1.47236163 -35.58340673 0.01883034 0 0 Z " fill="#CBD5D8" transform="translate(258.0625,16.625)"/>
<path d="M0 0 C44.88 0 89.76 0 136 0 C136 8.25 136 16.5 136 25 C91.12 25 46.24 25 0 25 C0 16.75 0 8.5 0 0 Z " fill="#D0DADD" transform="translate(188,299)"/>
<path d="M0 0 C7.67269531 3.4127019 12.61011416 9.33348125 16.109375 16.8828125 C19.10708227 26.36612544 17.6466499 35.69434736 13.65625 44.57421875 C11.16675808 48.97013738 8.52121401 52.32891325 4.171875 54.9453125 C3.511875 55.35265625 2.851875 55.76 2.171875 56.1796875 C-3.11680877 58.86534722 -9.03616299 58.9854742 -14.828125 58.1953125 C-23.63839573 54.77959953 -28.37416786 48.7760325 -32.703125 40.6953125 C-35.52529091 32.00646229 -35.13706263 21.88378094 -31.328125 13.6328125 C-24.35100864 1.48072595 -13.86122588 -3.94393996 0 0 Z " fill="#45B9EA" transform="translate(349.828125,137.8046875)"/>
<path d="M0 0 C7.62712679 4.70253595 12.27784101 11.61307641 15.3125 19.92578125 C16.56102082 30.96000576 15.51595057 40.75509221 8.625 49.73828125 C3.578691 55.06213725 -1.83713568 58.18963737 -9.25 58.42578125 C-15.68628516 58.09271474 -20.52840806 56.79045156 -25.4375 52.55078125 C-26.55125 51.25140625 -26.55125 51.25140625 -27.6875 49.92578125 C-28.7084375 48.87390625 -28.7084375 48.87390625 -29.75 47.80078125 C-35.29289009 39.57584757 -36.9060028 30.71110479 -35.6875 20.92578125 C-34.77963207 17.60543279 -33.47430168 14.85925316 -31.6875 11.92578125 C-31.26339844 11.21550781 -30.83929688 10.50523437 -30.40234375 9.7734375 C-23.54551746 -0.48315225 -11.84645207 -4.73513709 0 0 Z " fill="#45B9EA" transform="translate(180.6875,138.07421875)"/>
<path d="M0 0 C6.85360094 2.28453365 6.85360094 2.28453365 9.625 5.0625 C10.44871094 5.85333984 10.44871094 5.85333984 11.2890625 6.66015625 C17.87068517 15.66105118 17.59094557 24.88314439 17.53125 35.58984375 C17.53394964 37.30180582 17.53783597 39.0137664 17.54284668 40.72572327 C17.54872117 44.30224297 17.54024649 47.87836121 17.52148438 51.45483398 C17.49871317 56.01527656 17.51181899 60.57477634 17.53577423 65.13518429 C17.55030283 68.66735295 17.54559379 72.19930208 17.53526306 75.73147774 C17.53261433 77.41182126 17.53579952 79.09218539 17.54518127 80.77250481 C17.59098815 91.28186371 17.17785921 100.57524727 10.75 109.375 C8 112 8 112 0 116 C0 77.72 0 39.44 0 0 Z " fill="#CED8DB" transform="translate(461,113)"/>
<path d="M0 0 C0 38.28 0 76.56 0 116 C-8.30359066 111.84820467 -12.17886612 108.34770787 -16 100 C-17.2392861 96.24071555 -17.16901329 92.46066651 -17.19287109 88.54443359 C-17.20104858 87.79913391 -17.20922607 87.05383423 -17.21765137 86.28594971 C-17.24242726 83.82345362 -17.25900435 81.36101504 -17.2734375 78.8984375 C-17.27876118 78.05404743 -17.28408485 77.20965736 -17.28956985 76.33967972 C-17.31627193 71.86725016 -17.33565325 67.39484818 -17.35009766 62.92236328 C-17.36341436 59.23460971 -17.39122885 55.54741241 -17.43212891 51.85986328 C-17.48164964 47.3942338 -17.50624254 42.92910717 -17.51332474 38.46321487 C-17.52000547 36.7688612 -17.53514397 35.07451735 -17.55921555 33.3803215 C-17.70570017 22.44361238 -17.08209791 13.89253213 -9.6484375 5.2734375 C-8.89820313 4.64695312 -8.14796875 4.02046875 -7.375 3.375 C-6.61960937 2.72273438 -5.86421875 2.07046875 -5.0859375 1.3984375 C-3 0 -3 0 0 0 Z " fill="#CED8DB" transform="translate(51,113)"/>
<path d="M0 0 C1.33877953 -0.00574036 1.33877953 -0.00574036 2.7046051 -0.01159668 C4.58994679 -0.01431546 6.47532622 -0.00695659 8.3605957 0.00976562 C11.24060603 0.03115124 14.1181147 0.00997659 16.99804688 -0.015625 C18.83203674 -0.01298122 20.66602505 -0.00785521 22.5 0 C23.35847031 -0.00809692 24.21694061 -0.01619385 25.10142517 -0.02453613 C29.20168202 0.03948204 31.30952093 0.21361867 34.86157227 2.43945312 C36.81640625 4.53125 36.81640625 4.53125 37.41015625 6.53125 C37.21495068 10.6956355 37.04511816 13.54170194 33.81640625 16.53125 C27.70953549 18.56687359 20.61277461 17.8389463 14.20214844 17.88134766 C12.3651056 17.89791808 10.52812753 17.92522259 8.69140625 17.96337891 C6.03742167 18.0181936 3.38494338 18.04002536 0.73046875 18.0546875 C-0.49632095 18.08869156 -0.49632095 18.08869156 -1.74789429 18.12338257 C-6.08463713 18.10734637 -7.68502424 17.9280163 -11.20141602 15.12963867 C-13.1445472 12.58243517 -13.85188005 11.59877984 -13.74609375 8.46875 C-13.18359375 4.53125 -13.18359375 4.53125 -11.72241211 2.31835938 C-7.93452169 -0.34798911 -4.52972308 -0.04262296 0 0 Z " fill="#161616" transform="translate(244.18359375,204.46875)"/>
</svg>
