<?xml version="1.0" encoding="UTF-8"?>
<svg version="1.1" xmlns="http://www.w3.org/2000/svg" width="512" height="512">
<path d="M0 0 C32.34 0 64.68 0 98 0 C98 19.8 98 39.6 98 60 C101.96 60.99 105.92 61.98 110 63 C113.12250695 64.01097561 116.1811962 65.04094323 119.25 66.1875 C120.05066895 66.48430664 120.85133789 66.78111328 121.67626953 67.08691406 C130.62794103 70.49219143 139.70698158 74.47132105 147.6953125 79.796875 C149.84889561 81.18922496 149.84889561 81.18922496 151.88616943 80.81178284 C154.61894854 79.76230271 156.06624704 78.29388353 158.12597656 76.21459961 C158.92650452 75.41384506 159.72703247 74.61309052 160.55181885 73.78807068 C161.83327789 72.48338585 161.83327789 72.48338585 163.140625 71.15234375 C164.02280701 70.2659169 164.90498901 69.37949005 165.81390381 68.46620178 C168.15378577 66.11236944 170.48695398 63.75226246 172.81713867 61.38885498 C175.19814663 58.97711583 177.58770853 56.57388521 179.9765625 54.16992188 C184.6589678 49.45441941 189.33270728 44.73045844 194 40 C196.78382043 41.27170385 198.82934578 42.58060283 200.9866333 44.74612427 C201.54746613 45.30420776 202.10829895 45.86229126 202.68612671 46.43728638 C203.59027817 47.35222366 203.59027817 47.35222366 204.51269531 48.28564453 C205.15701508 48.92967224 205.80133484 49.57369995 206.46517944 50.23724365 C208.59093698 52.36439307 210.70952508 54.49853612 212.828125 56.6328125 C214.30170781 58.11012593 215.77573318 59.58699804 217.25018311 61.06344604 C221.12780821 64.94870369 224.99938941 68.83993029 228.86975098 72.73242188 C232.82099939 76.70413678 236.77792261 80.670189 240.734375 84.63671875 C248.49515421 92.4189412 256.24956148 100.20747999 264 108 C262.55419034 111.31613882 260.75170208 113.49185728 258.19287109 116.03417969 C257.41221283 116.81468689 256.63155457 117.59519409 255.82723999 118.39935303 C254.98448517 119.23178528 254.14173035 120.06421753 253.2734375 120.921875 C252.41062164 121.78186096 251.54780579 122.64184692 250.65884399 123.52789307 C247.90221971 126.2733231 245.13872201 129.0117169 242.375 131.75 C240.50475143 133.61021783 238.63495411 135.47088946 236.765625 137.33203125 C232.1823064 141.89329945 227.59332522 146.44881011 223 151 C224.50696236 155.69047695 226.41438303 159.95297863 228.6875 164.3125 C231.55924847 169.96650156 234.27954145 175.65868643 236.75 181.5 C237.01901123 182.11399658 237.28802246 182.72799316 237.56518555 183.3605957 C240.63398345 190.78212447 241.99721171 197.98884685 244 206 C263.8 206 283.6 206 304 206 C304 238.34 304 270.68 304 304 C284.2 304 264.4 304 244 304 C243.01 307.96 242.02 311.92 241 316 C239.98902439 319.12250695 238.95905677 322.1811962 237.8125 325.25 C237.51569336 326.05066895 237.21888672 326.85133789 236.91308594 327.67626953 C233.50780857 336.62794103 229.52867895 345.70698158 224.203125 353.6953125 C222.81077504 355.84889561 222.81077504 355.84889561 223.18821716 357.88616943 C224.23769729 360.61894854 225.70611647 362.06624704 227.78540039 364.12597656 C228.58615494 364.92650452 229.38690948 365.72703247 230.21192932 366.55181885 C231.08171921 367.40612488 231.95150909 368.26043091 232.84765625 369.140625 C233.7340831 370.02280701 234.62050995 370.90498901 235.53379822 371.81390381 C237.88763056 374.15378577 240.24773754 376.48695398 242.61114502 378.81713867 C245.02288417 381.19814663 247.42611479 383.58770853 249.83007812 385.9765625 C254.54558059 390.6589678 259.26954156 395.33270728 264 400 C262.72829615 402.78382043 261.41939717 404.82934578 259.25387573 406.9866333 C258.41675049 407.82788254 258.41675049 407.82788254 257.56271362 408.68612671 C256.95275543 409.28889435 256.34279724 409.89166199 255.71435547 410.51269531 C255.07032776 411.15701508 254.42630005 411.80133484 253.76275635 412.46517944 C251.63560693 414.59093698 249.50146388 416.70952508 247.3671875 418.828125 C245.88987407 420.30170781 244.41300196 421.77573318 242.93655396 423.25018311 C239.05129631 427.12780821 235.16006971 430.99938941 231.26757812 434.86975098 C227.29586322 438.82099939 223.329811 442.77792261 219.36328125 446.734375 C211.5810588 454.49515421 203.79252001 462.24956148 196 470 C192.68386118 468.55419034 190.50814272 466.75170208 187.96582031 464.19287109 C187.18531311 463.41221283 186.40480591 462.63155457 185.60064697 461.82723999 C184.76821472 460.98448517 183.93578247 460.14173035 183.078125 459.2734375 C181.78814606 457.97921371 181.78814606 457.97921371 180.47210693 456.65884399 C177.7266769 453.90221971 174.9882831 451.13872201 172.25 448.375 C170.38978217 446.50475143 168.52911054 444.63495411 166.66796875 442.765625 C162.10670055 438.1823064 157.55118989 433.59332522 153 429 C148.30952305 430.50696236 144.04702137 432.41438303 139.6875 434.6875 C134.03349844 437.55924847 128.34131357 440.27954145 122.5 442.75 C121.88600342 443.01901123 121.27200684 443.28802246 120.6394043 443.56518555 C113.21787553 446.63398345 106.01115315 447.99721171 98 450 C98 469.8 98 489.6 98 510 C65.66 510 33.32 510 0 510 C0 490.2 0 470.4 0 450 C-5.94 448.515 -5.94 448.515 -12 447 C-15.12250695 445.98902439 -18.1811962 444.95905677 -21.25 443.8125 C-22.05066895 443.51569336 -22.85133789 443.21888672 -23.67626953 442.91308594 C-32.62794103 439.50780857 -41.70698158 435.52867895 -49.6953125 430.203125 C-51.84889561 428.81077504 -51.84889561 428.81077504 -53.88616943 429.18821716 C-56.61894854 430.23769729 -58.06624704 431.70611647 -60.12597656 433.78540039 C-61.32676849 434.98653221 -61.32676849 434.98653221 -62.55181885 436.21192932 C-63.83327789 437.51661415 -63.83327789 437.51661415 -65.140625 438.84765625 C-66.02280701 439.7340831 -66.90498901 440.62050995 -67.81390381 441.53379822 C-70.15378577 443.88763056 -72.48695398 446.24773754 -74.81713867 448.61114502 C-77.19814663 451.02288417 -79.58770853 453.42611479 -81.9765625 455.83007812 C-86.6589678 460.54558059 -91.33270728 465.26954156 -96 470 C-98.78382043 468.72829615 -100.82934578 467.41939717 -102.9866333 465.25387573 C-103.54746613 464.69579224 -104.10829895 464.13770874 -104.68612671 463.56271362 C-105.28889435 462.95275543 -105.89166199 462.34279724 -106.51269531 461.71435547 C-107.15701508 461.07032776 -107.80133484 460.42630005 -108.46517944 459.76275635 C-110.59093698 457.63560693 -112.70952508 455.50146388 -114.828125 453.3671875 C-116.30170781 451.88987407 -117.77573318 450.41300196 -119.25018311 448.93655396 C-123.12780821 445.05129631 -126.99938941 441.16006971 -130.86975098 437.26757812 C-134.82099939 433.29586322 -138.77792261 429.329811 -142.734375 425.36328125 C-150.49515421 417.5810588 -158.24956148 409.79252001 -166 402 C-164.55419034 398.68386118 -162.75170208 396.50814272 -160.19287109 393.96582031 C-159.0218837 392.79505951 -159.0218837 392.79505951 -157.82723999 391.60064697 C-156.98448517 390.76821472 -156.14173035 389.93578247 -155.2734375 389.078125 C-153.97921371 387.78814606 -153.97921371 387.78814606 -152.65884399 386.47210693 C-149.90221971 383.7266769 -147.13872201 380.9882831 -144.375 378.25 C-142.50475143 376.38978217 -140.63495411 374.52911054 -138.765625 372.66796875 C-134.1823064 368.10670055 -129.59332522 363.55118989 -125 359 C-126.50696236 354.30952305 -128.41438303 350.04702137 -130.6875 345.6875 C-133.55924847 340.03349844 -136.27954145 334.34131357 -138.75 328.5 C-139.01901123 327.88600342 -139.28802246 327.27200684 -139.56518555 326.6394043 C-142.63398345 319.21787553 -143.99721171 312.01115315 -146 304 C-165.8 304 -185.6 304 -206 304 C-206 271.66 -206 239.32 -206 206 C-186.2 206 -166.4 206 -146 206 C-145.01 202.04 -144.02 198.08 -143 194 C-141.98902439 190.87749305 -140.95905677 187.8188038 -139.8125 184.75 C-139.51569336 183.94933105 -139.21888672 183.14866211 -138.91308594 182.32373047 C-135.50780857 173.37205897 -131.52867895 164.29301842 -126.203125 156.3046875 C-124.81077504 154.15110439 -124.81077504 154.15110439 -125.18821716 152.11383057 C-126.23769729 149.38105146 -127.70611647 147.93375296 -129.78540039 145.87402344 C-130.98653221 144.67323151 -130.98653221 144.67323151 -132.21192932 143.44818115 C-133.08171921 142.59387512 -133.95150909 141.73956909 -134.84765625 140.859375 C-135.7340831 139.97719299 -136.62050995 139.09501099 -137.53379822 138.18609619 C-139.88763056 135.84621423 -142.24773754 133.51304602 -144.61114502 131.18286133 C-147.02288417 128.80185337 -149.42611479 126.41229147 -151.83007812 124.0234375 C-156.54558059 119.3410322 -161.26954156 114.66729272 -166 110 C-164.72829615 107.21617957 -163.41939717 105.17065422 -161.25387573 103.0133667 C-160.69579224 102.45253387 -160.13770874 101.89170105 -159.56271362 101.31387329 C-158.95275543 100.71110565 -158.34279724 100.10833801 -157.71435547 99.48730469 C-157.07032776 98.84298492 -156.42630005 98.19866516 -155.76275635 97.53482056 C-153.63560693 95.40906302 -151.50146388 93.29047492 -149.3671875 91.171875 C-147.88987407 89.69829219 -146.41300196 88.22426682 -144.93655396 86.74981689 C-141.05129631 82.87219179 -137.16006971 79.00061059 -133.26757812 75.13024902 C-129.29586322 71.17900061 -125.329811 67.22207739 -121.36328125 63.265625 C-113.5810588 55.50484579 -105.79252001 47.75043852 -98 40 C-94.68386118 41.44580966 -92.50814272 43.24829792 -89.96582031 45.80712891 C-89.18531311 46.58778717 -88.40480591 47.36844543 -87.60064697 48.17276001 C-86.76821472 49.01551483 -85.93578247 49.85826965 -85.078125 50.7265625 C-84.21813904 51.58937836 -83.35815308 52.45219421 -82.47210693 53.34115601 C-79.7266769 56.09778029 -76.9882831 58.86127799 -74.25 61.625 C-72.38978217 63.49524857 -70.52911054 65.36504589 -68.66796875 67.234375 C-64.10670055 71.8176936 -59.55118989 76.40667478 -55 81 C-50.30952305 79.49303764 -46.04702137 77.58561697 -41.6875 75.3125 C-36.03349844 72.44075153 -30.34131357 69.72045855 -24.5 67.25 C-23.88600342 66.98098877 -23.27200684 66.71197754 -22.6394043 66.43481445 C-15.21787553 63.36601655 -8.01115315 62.00278829 0 60 C0 40.2 0 20.4 0 0 Z M-2 197 C-2.83015625 197.75023437 -3.6603125 198.50046875 -4.515625 199.2734375 C-18.45212562 212.50059527 -27.33316044 230.72644552 -28.23828125 250.0234375 C-28.76959404 270.69245389 -23.19999968 290.45596742 -9 306 C-8.24976563 306.83015625 -7.49953125 307.6603125 -6.7265625 308.515625 C6.50059527 322.45212562 24.72644552 331.33316044 44.0234375 332.23828125 C64.69245389 332.76959404 84.45596742 327.19999968 100 313 C101.24523437 311.87464844 101.24523437 311.87464844 102.515625 310.7265625 C116.45212562 297.49940473 125.33316044 279.27355448 126.23828125 259.9765625 C126.76959404 239.30754611 121.19999968 219.54403258 107 204 C106.24976563 203.16984375 105.49953125 202.3396875 104.7265625 201.484375 C91.49940473 187.54787438 73.27355448 178.66683956 53.9765625 177.76171875 C33.30754611 177.23040596 13.54403258 182.80000032 -2 197 Z " fill="#66D3F0" transform="translate(207,1)"/>
<path d="M0 0 C1.42154176 1.26298518 2.86069019 2.506303 4.3125 3.734375 C5.0446875 4.35570312 5.776875 4.97703125 6.53125 5.6171875 C7.53671875 6.46216797 7.53671875 6.46216797 8.5625 7.32421875 C10.03125 8.8046875 10.03125 8.8046875 10.03125 10.8046875 C11.02125 11.1346875 12.01125 11.4646875 13.03125 11.8046875 C18.03125 17.15352471 18.03125 17.15352471 18.03125 20.8046875 C18.69125 20.8046875 19.35125 20.8046875 20.03125 20.8046875 C21.5390625 22.66796875 21.5390625 22.66796875 23.15625 25.1171875 C23.69507813 25.91769531 24.23390625 26.71820313 24.7890625 27.54296875 C26.03125 29.8046875 26.03125 29.8046875 26.03125 32.8046875 C26.69125 32.8046875 27.35125 32.8046875 28.03125 32.8046875 C43.51479929 60.47351523 48.99587804 95.01653591 40.47900391 125.80078125 C36.07380441 140.66878957 30.3645921 156.036159 20.03125 167.8046875 C18.75272713 170.02056098 18.75272713 170.02056098 18.03125 171.8046875 C17.37125 171.8046875 16.71125 171.8046875 16.03125 171.8046875 C15.969375 172.3821875 15.9075 172.9596875 15.84375 173.5546875 C14.70491804 176.708376 12.66803864 177.76716901 10.03125 179.8046875 C9.1118795 180.86811891 8.21590437 181.95220157 7.34375 183.0546875 C6.1990625 184.4159375 6.1990625 184.4159375 5.03125 185.8046875 C4.37125 185.8046875 3.71125 185.8046875 3.03125 185.8046875 C2.70125 186.7946875 2.37125 187.7846875 2.03125 188.8046875 C-3.31758721 193.8046875 -3.31758721 193.8046875 -6.96875 193.8046875 C-6.96875 194.4646875 -6.96875 195.1246875 -6.96875 195.8046875 C-8.28875 196.1346875 -9.60875 196.4646875 -10.96875 196.8046875 C-10.96875 197.4646875 -10.96875 198.1246875 -10.96875 198.8046875 C-41.50199944 216.23022885 -72.81461467 224.50884773 -107.65625 217.0546875 C-108.83743408 216.80259521 -110.01861816 216.55050293 -111.2355957 216.29077148 C-117.8845356 214.77408109 -123.85534381 212.80913585 -129.96875 209.8046875 C-131.40347656 209.19173828 -131.40347656 209.19173828 -132.8671875 208.56640625 C-139.69542071 205.60463317 -145.8048856 201.96129923 -151.96875 197.8046875 C-152.88398438 197.20140625 -153.79921875 196.598125 -154.7421875 195.9765625 C-159.24897418 192.93679436 -162.71998049 190.21373184 -165.96875 185.8046875 C-167.03325087 184.8865555 -168.1178202 183.99130537 -169.21875 183.1171875 C-170.58 181.9725 -170.58 181.9725 -171.96875 180.8046875 C-171.96875 180.1446875 -171.96875 179.4846875 -171.96875 178.8046875 C-172.62875 178.8046875 -173.28875 178.8046875 -173.96875 178.8046875 C-175.58984375 177.23046875 -175.58984375 177.23046875 -177.40625 175.1171875 C-178.00308594 174.43269531 -178.59992188 173.74820313 -179.21484375 173.04296875 C-181.03253236 170.72329041 -182.4833993 168.34825437 -183.96875 165.8046875 C-184.55011719 164.92554688 -185.13148438 164.04640625 -185.73046875 163.140625 C-195.00294712 148.8839544 -200.90694526 133.50695752 -203.96875 116.8046875 C-204.19304687 115.61359375 -204.41734375 114.4225 -204.6484375 113.1953125 C-208.80270995 88.04204646 -203.97758534 63.95437468 -193.96875 40.8046875 C-193.29656825 39.14023746 -192.62810955 37.47425847 -191.96875 35.8046875 C-191.30875 35.8046875 -190.64875 35.8046875 -189.96875 35.8046875 C-189.86949219 35.07894531 -189.77023438 34.35320312 -189.66796875 33.60546875 C-188.87969585 30.44797338 -187.69694402 28.60987977 -185.78125 25.9921875 C-185.15089844 25.1259375 -184.52054688 24.2596875 -183.87109375 23.3671875 C-182.92943359 22.09875 -182.92943359 22.09875 -181.96875 20.8046875 C-181.43378906 20.0621875 -180.89882812 19.3196875 -180.34765625 18.5546875 C-177.48694218 14.63142249 -174.50490302 11.1547272 -170.96875 7.8046875 C-170.246875 7.0415625 -169.525 6.2784375 -168.78125 5.4921875 C-166.96875 3.8046875 -166.96875 3.8046875 -164.96875 3.8046875 C-164.63875 2.8146875 -164.30875 1.8246875 -163.96875 0.8046875 C-159.01393407 -3.85053491 -148.89472207 -13.1953125 -141.96875 -13.1953125 C-141.96875 -13.8553125 -141.96875 -14.5153125 -141.96875 -15.1953125 C-134.42780476 -19.07587191 -126.8915615 -22.02072106 -118.78125 -24.4453125 C-117.96301758 -24.69104004 -117.14478516 -24.93676758 -116.30175781 -25.18994141 C-75.78224289 -36.9628321 -31.72712698 -28.32779195 0 0 Z M-131.96875 36.8046875 C-132.79890625 37.55492187 -133.6290625 38.30515625 -134.484375 39.078125 C-148.42087562 52.30528277 -157.30191044 70.53113302 -158.20703125 89.828125 C-158.73834404 110.49714139 -153.16874968 130.26065492 -138.96875 145.8046875 C-138.21851563 146.63484375 -137.46828125 147.465 -136.6953125 148.3203125 C-123.46815473 162.25681312 -105.24230448 171.13784794 -85.9453125 172.04296875 C-65.27629611 172.57428154 -45.51278258 167.00468718 -29.96875 152.8046875 C-28.72351563 151.67933594 -28.72351563 151.67933594 -27.453125 150.53125 C-13.51662438 137.30409223 -4.63558956 119.07824198 -3.73046875 99.78125 C-3.19915596 79.11223361 -8.76875032 59.34872008 -22.96875 43.8046875 C-23.71898437 42.97453125 -24.46921875 42.144375 -25.2421875 41.2890625 C-38.46934527 27.35256188 -56.69519552 18.47152706 -75.9921875 17.56640625 C-96.66120389 17.03509346 -116.42471742 22.60468782 -131.96875 36.8046875 Z " fill="#3398D9" transform="translate(336.96875,161.1953125)"/>
<path d="M0 0 C4.62 0.66 9.24 1.32 14 2 C14 2.33 14 2.66 14 3 C10.37 3.66 6.74 4.32 3 5 C3 4.01 3 3.02 3 2 C2.01 2 1.02 2 0 2 C0 1.34 0 0.68 0 0 Z " fill="#3D94CE" transform="translate(233,330)"/>
<path d="M0 0 C0.66 0 1.32 0 2 0 C2 1.32 2 2.64 2 4 C2.66 4 3.32 4 4 4 C4 4.66 4 5.32 4 6 C-0.29 5.34 -4.58 4.68 -9 4 C-9 3.67 -9 3.34 -9 3 C-5.92382812 2.70703125 -5.92382812 2.70703125 -2.84765625 2.4140625 C-2.23792969 2.27742187 -1.62820313 2.14078125 -1 2 C-0.67 1.34 -0.34 0.68 0 0 Z " fill="#3C94CE" transform="translate(274,176)"/>
<path d="M0 0 C0.99 0.33 1.98 0.66 3 1 C-0.44615385 6.78461538 -0.44615385 6.78461538 -3.25 7.875 C-3.8275 7.91625 -4.405 7.9575 -5 8 C-3.62845496 5.04590299 -2.01136276 2.55991624 0 0 Z " fill="#60C9F5" transform="translate(361,323)"/>
<path d="M0 0 C0.66 0.66 1.32 1.32 2 2 C0.68 3.32 -0.64 4.64 -2 6 C-2.99 5.67 -3.98 5.34 -5 5 C-5 4.34 -5 3.68 -5 3 C-2.5 1.375 -2.5 1.375 0 0 Z " fill="#60D8E6" transform="translate(405,465)"/>
</svg>
