<?xml version="1.0" encoding="UTF-8"?>
<svg version="1.1" xmlns="http://www.w3.org/2000/svg" width="512" height="512">
<path d="M0 0 C1.29222977 -0.00686325 2.58445953 -0.0137265 3.91584778 -0.02079773 C7.43660813 -0.0386347 10.95711797 -0.03757883 14.4779098 -0.03185534 C17.42752142 -0.02874979 20.37708586 -0.03487103 23.32669073 -0.04089409 C30.29009992 -0.05490654 37.25338634 -0.05340539 44.21679688 -0.04199219 C51.37817239 -0.03051322 58.5391733 -0.04459015 65.70049948 -0.07138866 C71.87066421 -0.09360561 78.04071186 -0.10016963 84.21091372 -0.09431225 C87.88660542 -0.09095585 91.56205706 -0.09326928 95.23771477 -0.11056328 C99.3397043 -0.12902364 103.44097338 -0.11478401 107.54296875 -0.09765625 C108.74587555 -0.10732422 109.94878235 -0.11699219 111.18814087 -0.12695312 C121.91028705 -0.03349486 130.99394672 2.85748939 138.83618164 10.40405273 C144.71092517 17.30940331 147.00104849 25.25423012 149.39868164 33.84155273 C149.78407054 35.17955945 150.17071765 36.51720437 150.55859375 37.85449219 C151.31947941 40.48885384 152.07095967 43.12557751 152.81274414 45.76538086 C153.70427112 48.93506553 154.61025213 52.1000064 155.52368164 55.26342773 C155.98337035 56.87241612 156.44183135 58.48175612 156.89868164 60.09155273 C157.10243408 60.80819092 157.30618652 61.5248291 157.51611328 62.26318359 C158.29463715 65.08204938 158.83618164 67.46255448 158.83618164 70.40405273 C159.93905518 70.37263184 159.93905518 70.37263184 161.06420898 70.34057617 C164.44638999 70.25661944 167.82835076 70.20514187 171.21118164 70.15405273 C172.3674707 70.12053711 173.52375977 70.08702148 174.71508789 70.05249023 C185.83818822 69.92680548 193.79161513 73.15026463 202.83618164 79.40405273 C203.68180664 79.96092773 204.52743164 80.51780273 205.39868164 81.09155273 C214.878395 90.08512695 219.17530054 101.22464674 219.54251575 114.1275835 C219.55652267 115.34376708 219.57052958 116.55995066 219.58496094 117.81298828 C219.61293944 119.1562373 219.64199107 120.4994643 219.67199993 121.84266949 C219.7625328 126.36293713 219.80427103 130.88303416 219.83618164 135.40405273 C219.84213112 136.2109607 219.84808061 137.01786866 219.85421038 137.84922838 C219.94271737 150.82843923 219.91694986 163.80708903 219.86737275 176.7864058 C219.85557109 179.89847653 219.84495779 183.0105494 219.83463097 186.12262535 C219.8016496 195.90320629 219.763849 205.68375162 219.71926576 215.46428663 C219.66822568 226.68285081 219.63415746 237.90130496 219.61408502 249.11996633 C219.59739623 257.85960474 219.565531 266.59910698 219.52223891 275.33865374 C219.49685417 280.53308822 219.47782356 285.72735423 219.47486305 290.92185402 C219.47170432 295.78722829 219.44965883 300.65215903 219.41330719 305.51739502 C219.40323337 307.29507097 219.39984665 309.07280009 219.4038372 310.85050011 C219.42767736 323.99092129 217.39056329 333.47849751 209.83618164 344.40405273 C209.27930664 345.24967773 208.72243164 346.09530273 208.14868164 346.96655273 C201.24797759 354.24026782 192.01006826 359.62919451 181.92897034 360.71806335 C178.88080797 360.77781316 175.85595948 360.72393172 172.80883789 360.62670898 C170.5295576 360.60709754 168.25025848 360.58958352 165.97094727 360.57397461 C162.43069325 360.5285773 158.89316699 360.46639739 155.35400391 360.36669922 C140.29595167 359.34783422 140.29595167 359.34783422 127.06468201 365.18138123 C124.82178366 367.45099204 122.85262578 369.93356631 120.83618164 372.40405273 C107.73618245 383.58300759 90.41572058 392.07062517 73.83618164 396.40405273 C73.1357373 396.59725098 72.43529297 396.79044922 71.71362305 396.98950195 C51.26656448 402.46679186 28.36010576 402.67919244 7.83618164 397.40405273 C7.19535645 397.24308105 6.55453125 397.08210938 5.89428711 396.91625977 C-17.35268361 390.91276274 -38.21827344 378.34959766 -55.16381836 361.40405273 C-57.10288521 361.30392316 -59.04564031 361.2749561 -60.98728943 361.27275085 C-62.88610115 361.26673859 -62.88610115 361.26673859 -64.82327271 361.26060486 C-66.23944094 361.26108003 -67.65560915 361.26161616 -69.07177734 361.26220703 C-70.55321863 361.25917705 -72.03465898 361.25565604 -73.51609802 361.25167847 C-76.71529177 361.24377327 -79.91447428 361.23863832 -83.11367607 361.2353878 C-88.17828162 361.22948483 -93.24281659 361.21294865 -98.30738831 361.19404602 C-100.04091163 361.18770789 -101.774435 361.18138228 -103.50795841 361.17506886 C-104.37639791 361.17190304 -105.2448374 361.16873723 -106.13959324 361.16547549 C-117.93403242 361.12340942 -129.7284401 361.09045571 -141.52294922 361.078125 C-149.47225101 361.06972878 -157.42137947 361.04717507 -165.37059456 361.00876933 C-169.57623387 360.98905057 -173.78161431 360.97658988 -177.98730278 360.98160362 C-181.95106952 360.98627077 -185.91434726 360.97233289 -189.87801552 360.94459152 C-191.32671376 360.9377126 -192.77546293 360.9375174 -194.22415924 360.94479179 C-206.51414799 361.00023092 -215.117113 358.35076117 -225.16381836 351.40405273 C-226.43225586 350.56874023 -226.43225586 350.56874023 -227.72631836 349.71655273 C-236.04788259 341.82173538 -241.14219048 331.74916835 -241.63806403 320.2585758 C-241.7308959 316.17391183 -241.73471823 312.0918677 -241.72558594 308.00634766 C-241.73597509 306.16178892 -241.74808757 304.31723921 -241.76177979 302.47270203 C-241.79381033 297.48384707 -241.80142498 292.49522651 -241.80425477 287.50628066 C-241.8111514 282.24853739 -241.83974787 276.99090832 -241.86564636 271.73323059 C-241.90615682 262.88579945 -241.93199992 254.03842631 -241.94775391 245.19091797 C-241.96786922 233.92688315 -242.01100538 222.66306694 -242.062047 211.39913464 C-242.10622778 201.62531069 -242.14044237 191.85145507 -242.17271209 182.07758546 C-242.18322338 178.98417149 -242.19486994 175.89076325 -242.20661354 172.79735374 C-242.25250733 159.99919546 -242.25910173 147.20200574 -242.16381836 134.40405273 C-242.15823646 133.62496567 -242.15265456 132.84587861 -242.14690351 132.04318285 C-242.10699002 127.10920305 -242.02266124 122.17803433 -241.91259766 117.24511719 C-241.89859075 116.0684785 -241.88458384 114.89183981 -241.87015247 113.6795454 C-241.5572572 103.09738148 -238.13021967 95.03298493 -232.16381836 86.40405273 C-231.32850586 85.13561523 -231.32850586 85.13561523 -230.47631836 83.84155273 C-223.41953098 76.40331739 -214.14364923 71.06896942 -203.83984375 70.08740234 C-200.37643604 70.0128755 -196.93890275 70.05295538 -193.47631836 70.15405273 C-192.28586914 70.17209961 -191.09541992 70.19014648 -189.86889648 70.20874023 C-186.96632805 70.25536784 -184.06552725 70.32078993 -181.16381836 70.40405273 C-181.18476563 69.71891602 -181.20571289 69.0337793 -181.22729492 68.32788086 C-181.31107235 65.18675751 -181.3626725 62.0458701 -181.41381836 58.90405273 C-181.44733398 57.82639648 -181.48084961 56.74874023 -181.51538086 55.63842773 C-181.61074443 47.81861495 -180.58584784 42.36962605 -175.41772461 36.38061523 C-174.85956055 35.93459961 -174.30139648 35.48858398 -173.72631836 35.02905273 C-173.17073242 34.56756836 -172.61514648 34.10608398 -172.04272461 33.63061523 C-166.37789707 29.93257813 -161.02673225 30.08275169 -154.45678711 30.06811523 C-153.41742508 30.06145844 -152.37806305 30.05480164 -151.3072052 30.04794312 C-149.11090867 30.03783176 -146.9145815 30.03312563 -144.71826172 30.03344727 C-141.37342144 30.02908158 -138.0299091 29.9927653 -134.68530273 29.95483398 C-132.54663535 29.94896389 -130.40796172 29.94499579 -128.26928711 29.94311523 C-127.27632126 29.9287442 -126.28335541 29.91437317 -125.26029968 29.89956665 C-118.05028338 29.94655097 -112.66240633 31.38500095 -107.14038086 36.15014648 C-106.69436523 36.70831055 -106.24834961 37.26647461 -105.78881836 37.84155273 C-105.0965918 38.67493164 -105.0965918 38.67493164 -104.39038086 39.52514648 C-97.99609798 49.32021038 -101.16381836 57.23597615 -101.16381836 70.40405273 C-84.66381836 70.40405273 -68.16381836 70.40405273 -51.16381836 70.40405273 C-50.50381836 67.10405273 -49.84381836 63.80405273 -49.16381836 60.40405273 C-48.38731896 57.39812709 -47.59021172 54.41497739 -46.73803711 51.43139648 C-46.50856888 50.62344131 -46.27910065 49.81548615 -46.04267883 48.98304749 C-45.55998216 47.29095694 -45.07503112 45.59950796 -44.58789062 43.90869141 C-43.85287357 41.34697302 -43.13420927 38.7810095 -42.41577148 36.21459961 C-36.61314952 15.82297766 -36.61314952 15.82297766 -28.16381836 8.40405273 C-27.25631836 7.53780273 -26.34881836 6.67155273 -25.41381836 5.77905273 C-18.01291756 -0.1732494 -9.07973822 -0.0339221 0 0 Z " fill="#62729B" transform="translate(267.163818359375,55.595947265625)"/>
<path d="M0 0 C0.88171875 0.51820313 1.7634375 1.03640625 2.671875 1.5703125 C5.13284289 3.01922555 7.57050587 4.49905598 10 6 C10.64582031 6.39445312 11.29164063 6.78890625 11.95703125 7.1953125 C13.34332659 8.07189269 14.67955931 9.0270437 16 10 C16 10.66 16 11.32 16 12 C17.10214844 12.38285156 17.10214844 12.38285156 18.2265625 12.7734375 C33.56644671 19.5575553 45.85132776 40.53878912 53 55 C53.50144531 55.99257813 54.00289062 56.98515625 54.51953125 58.0078125 C67.23154533 84.20421621 71.22944034 114.63167611 64 143 C63.82307617 143.73299316 63.64615234 144.46598633 63.46386719 145.22119141 C61.05008539 155.16605578 57.97765019 164.00140676 53 173 C52.32715421 174.39286528 51.65983751 175.78842545 51 177.1875 C42.9569574 193.20738731 30.129834 207.21510518 16 218 C15.25621094 218.58265625 14.51242187 219.1653125 13.74609375 219.765625 C1.39026633 228.96265828 -13.11150977 236.10856525 -28 240 C-28.70044434 240.19319824 -29.40088867 240.38639648 -30.12255859 240.58544922 C-50.56961716 246.06273913 -73.47607588 246.27513971 -94 241 C-94.6408252 240.83902832 -95.28165039 240.67805664 -95.94189453 240.51220703 C-128.73635343 232.0430848 -156.68707208 210.97265489 -174 182 C-174.66 181.01 -175.32 180.02 -176 179 C-176 178.01 -176 177.02 -176 176 C-176.66 176 -177.32 176 -178 176 C-191.78077085 147.17454144 -197.58982977 115.44781173 -190 84 C-189.82839355 83.28859863 -189.65678711 82.57719727 -189.47998047 81.84423828 C-187.15610066 72.55494931 -183.96063361 64.20449168 -179.453125 55.7578125 C-177.91860461 53.02659862 -177.91860461 53.02659862 -177 50 C-176.34 50 -175.68 50 -175 50 C-174.9175 49.29875 -174.835 48.5975 -174.75 47.875 C-173.81990995 44.3096548 -172.23313631 41.90984428 -170 39 C-169.34 39 -168.68 39 -168 39 C-167.71125 38.236875 -167.4225 37.47375 -167.125 36.6875 C-166 34 -166 34 -164 31 C-163.34 31 -162.68 31 -162 31 C-161.773125 30.46375 -161.54625 29.9275 -161.3125 29.375 C-155.15001348 18.22383392 -143.26180946 11.00375353 -133 4 C-132.16597656 3.43023437 -131.33195312 2.86046875 -130.47265625 2.2734375 C-93.12688962 -21.60231758 -37.87382834 -23.57951248 0 0 Z " fill="#EDF2FE" transform="translate(369,212)"/>
<path d="M0 0 C3.37362295 2.80320361 6.65833634 5.58361452 9.5625 8.875 C9.5625 9.535 9.5625 10.195 9.5625 10.875 C10.5525 11.205 11.5425 11.535 12.5625 11.875 C24.11284418 27.0330788 31.57615062 44.80557873 32.5625 63.875 C32.64177734 65.17050781 32.64177734 65.17050781 32.72265625 66.4921875 C33.48061506 90.28550332 25.37542471 112.99954262 9.125 130.5 C8.279375 131.28375 7.43375 132.0675 6.5625 132.875 C5.57830078 133.90560547 5.57830078 133.90560547 4.57421875 134.95703125 C-3.47685687 143.34183021 -11.78486891 148.35888457 -22.4375 152.875 C-23.53449219 153.37257813 -24.63148438 153.87015625 -25.76171875 154.3828125 C-45.48584072 162.38984182 -70.09421072 162.77232142 -89.93603516 154.88134766 C-104.26934147 148.48069292 -117.75201617 139.34910642 -127.4375 126.875 C-128.05238281 126.15699219 -128.66726562 125.43898438 -129.30078125 124.69921875 C-133.45591987 119.71821407 -135.87336334 115.17623626 -137.4375 108.875 C-138.0975 108.875 -138.7575 108.875 -139.4375 108.875 C-147.90751474 84.3378199 -151.16912225 58.78125469 -140.375 34.25 C-140.07698486 33.57066406 -139.77896973 32.89132812 -139.47192383 32.19140625 C-137.20102148 27.19159469 -134.57853825 22.50215 -131.625 17.875 C-131.04770142 16.96693604 -131.04770142 16.96693604 -130.45874023 16.04052734 C-129.5114895 14.61053298 -128.48157369 13.23591072 -127.4375 11.875 C-126.7775 11.875 -126.1175 11.875 -125.4375 11.875 C-125.169375 11.235625 -124.90125 10.59625 -124.625 9.9375 C-123.4375 7.875 -123.4375 7.875 -120.4375 6.875 C-120.4375 6.215 -120.4375 5.555 -120.4375 4.875 C-118.97216797 3.50219727 -118.97216797 3.50219727 -116.9296875 1.94140625 C-115.81980469 1.0915918 -115.81980469 1.0915918 -114.6875 0.22460938 C-113.90375 -0.36513672 -113.12 -0.95488281 -112.3125 -1.5625 C-111.55195313 -2.14837891 -110.79140625 -2.73425781 -110.0078125 -3.33789062 C-104.41402069 -7.58627906 -98.86995411 -10.64879911 -92.3125 -13.1875 C-88.87934438 -14.51761963 -88.87934438 -14.51761963 -85.5769043 -16.13208008 C-83.28008681 -17.19805711 -81.34084517 -17.611285 -78.83984375 -17.9765625 C-77.96183105 -18.10595215 -77.08381836 -18.2353418 -76.17919922 -18.36865234 C-75.25381348 -18.49449707 -74.32842773 -18.6203418 -73.375 -18.75 C-72.42125488 -18.87971191 -71.46750977 -19.00942383 -70.48486328 -19.14306641 C-44.64634229 -22.51369241 -20.64664242 -16.20061027 0 0 Z " fill="#6567FD" transform="translate(363.4375,256.125)"/>
<path d="M0 0 C1.29222977 -0.00686325 2.58445953 -0.0137265 3.91584778 -0.02079773 C7.43660813 -0.0386347 10.95711797 -0.03757883 14.4779098 -0.03185534 C17.42752142 -0.02874979 20.37708586 -0.03487103 23.32669073 -0.04089409 C30.29009992 -0.05490654 37.25338634 -0.05340539 44.21679688 -0.04199219 C51.37817239 -0.03051322 58.5391733 -0.04459015 65.70049948 -0.07138866 C71.87066421 -0.09360561 78.04071186 -0.10016963 84.21091372 -0.09431225 C87.88660542 -0.09095585 91.56205706 -0.09326928 95.23771477 -0.11056328 C99.3397043 -0.12902364 103.44097338 -0.11478401 107.54296875 -0.09765625 C108.74587555 -0.10732422 109.94878235 -0.11699219 111.18814087 -0.12695312 C121.91028705 -0.03349486 130.99394672 2.85748939 138.83618164 10.40405273 C144.71092517 17.30940331 147.00104849 25.25423012 149.39868164 33.84155273 C149.78407054 35.17955945 150.17071765 36.51720437 150.55859375 37.85449219 C151.31947941 40.48885384 152.07095967 43.12557751 152.81274414 45.76538086 C153.70427112 48.93506553 154.61025213 52.1000064 155.52368164 55.26342773 C155.98337035 56.87241612 156.44183135 58.48175612 156.89868164 60.09155273 C157.10243408 60.80819092 157.30618652 61.5248291 157.51611328 62.26318359 C158.29463715 65.08204938 158.83618164 67.46255448 158.83618164 70.40405273 C89.53618164 70.40405273 20.23618164 70.40405273 -51.16381836 70.40405273 C-49.87408426 63.95538223 -48.53609345 57.72663984 -46.73803711 51.43139648 C-46.50856888 50.62344131 -46.27910065 49.81548615 -46.04267883 48.98304749 C-45.55998216 47.29095694 -45.07503112 45.59950796 -44.58789062 43.90869141 C-43.85287357 41.34697302 -43.13420927 38.7810095 -42.41577148 36.21459961 C-36.61314952 15.82297766 -36.61314952 15.82297766 -28.16381836 8.40405273 C-27.25631836 7.53780273 -26.34881836 6.67155273 -25.41381836 5.77905273 C-18.01291756 -0.1732494 -9.07973822 -0.0339221 0 0 Z " fill="#99CBFE" transform="translate(267.163818359375,55.595947265625)"/>
<path d="M0 0 C0.49959229 0.3403125 0.99918457 0.680625 1.51391602 1.03125 C8.20619687 5.54529436 15.05470489 9.78394128 21.9375 14 C23.05318359 14.68578125 24.16886719 15.3715625 25.31835938 16.078125 C26.41857422 16.75359375 27.51878906 17.4290625 28.65234375 18.125 C29.7182373 18.78113281 30.78413086 19.43726563 31.88232422 20.11328125 C33.91977767 21.34628362 35.97321186 22.55335518 38.04345703 23.73046875 C38.95853027 24.25253906 39.87360352 24.77460938 40.81640625 25.3125 C42.03179077 25.98732422 42.03179077 25.98732422 43.27172852 26.67578125 C43.84205811 27.11277344 44.4123877 27.54976563 45 28 C45 28.99 45 29.98 45 31 C43.86739746 31.62660522 43.86739746 31.62660522 42.71191406 32.26586914 C39.84851809 33.85088523 36.98581395 35.43713788 34.12353516 37.02416992 C32.89626129 37.70433616 31.6687316 38.38404105 30.44091797 39.06323242 C29.85068848 39.38976807 29.26045898 39.71630371 28.65234375 40.05273438 C28.06181213 40.37797592 27.47128052 40.70321747 26.862854 41.03831482 C25.66632295 41.70662453 24.47693985 42.38788467 23.29486084 43.08143616 C20.37843108 44.77917948 17.67181084 46.10783552 14.45800781 47.16381836 C10.50714123 48.65050573 8.60241843 49.63782854 6 53 C3.96873842 61.23394624 4.88278946 70.04881779 5.25 78.4375 C5.31021772 80.81431945 5.36496628 83.19128419 5.4140625 85.56835938 C5.54606022 91.3820823 5.74656836 97.19037173 6 103 C7.01883774 103.5732048 7.01883774 103.5732048 8.05825806 104.1579895 C20.01593428 110.88680137 31.94060052 117.65638831 43.73925781 124.66064453 C46.25793987 126.15281405 48.78105156 127.63731852 51.3046875 129.12109375 C61.11536555 134.89525143 70.89677563 140.70293426 80.54272461 146.74975586 C84.00993157 149.14810678 84.00993157 149.14810678 88 150 C88 150.66 88 151.32 88 152 C89.65 152.66 91.3 153.32 93 154 C91.57779967 156.84440065 89.76164283 157.17508535 86.875 158.4375 C85.94429687 158.84871094 85.01359375 159.25992188 84.0546875 159.68359375 C83.04664063 160.11800781 82.03859375 160.55242187 81 161 C79.89269531 161.50273437 78.78539062 162.00546875 77.64453125 162.5234375 C57.92496014 170.51271711 33.33360688 170.89347078 13.50146484 163.00634766 C-0.83184147 156.60569292 -14.31451617 147.47410642 -24 135 C-24.61488281 134.28199219 -25.22976562 133.56398438 -25.86328125 132.82421875 C-30.01841987 127.84321407 -32.43586334 123.30123626 -34 117 C-34.66 117 -35.32 117 -36 117 C-44.47001474 92.4628199 -47.73162225 66.90625469 -36.9375 42.375 C-36.63948486 41.69566406 -36.34146973 41.01632812 -36.03442383 40.31640625 C-33.76352148 35.31659469 -31.14103825 30.62715 -28.1875 26 C-27.80263428 25.39462402 -27.41776855 24.78924805 -27.02124023 24.16552734 C-26.0739895 22.73553298 -25.04407369 21.36091072 -24 20 C-23.34 20 -22.68 20 -22 20 C-21.731875 19.360625 -21.46375 18.72125 -21.1875 18.0625 C-20 16 -20 16 -17 15 C-17 14.34 -17 13.68 -17 13 C-15.43945312 11.57958984 -15.43945312 11.57958984 -13.28125 9.9609375 C-12.13076172 9.09082031 -12.13076172 9.09082031 -10.95703125 8.203125 C-10.14621094 7.59984375 -9.33539063 6.9965625 -8.5 6.375 C-7.68917969 5.76398438 -6.87835938 5.15296875 -6.04296875 4.5234375 C-4.03282573 3.00991805 -2.01842299 1.50244941 0 0 Z " fill="#8095FD" transform="translate(260,248)"/>
<path d="M0 0 C7.0986004 3.21585864 13.05923532 6.96685215 19 12 C19.845625 12.7115625 20.69125 13.423125 21.5625 14.15625 C26.24315206 18.1933124 26.24315206 18.1933124 28 20 C28 20.66 28 21.32 28 22 C28.99 22.33 29.98 22.66 31 23 C44.07242304 40.15557697 50.14616398 58.71298465 51 80 C50.38294189 80.3309668 49.76588379 80.66193359 49.13012695 81.00292969 C36.85205871 87.59752655 24.62375935 94.24833031 12.6027832 101.30371094 C11.790271 101.77583008 10.97775879 102.24794922 10.140625 102.734375 C9.43454102 103.14913086 8.72845703 103.56388672 8.00097656 103.99121094 C5.99921631 105.0003951 4.1737288 105.49341696 2 106 C1.98969254 104.71626999 1.97938507 103.43253998 1.96876526 102.10990906 C1.87113019 90.02883969 1.76840554 77.94782297 1.66066074 65.86683941 C1.60542892 59.6554665 1.55200843 53.44408888 1.50268555 47.23266602 C1.45504592 41.24152774 1.40270314 35.25044753 1.34705925 29.25937843 C1.3266339 26.97039035 1.30792112 24.68138634 1.29092598 22.39237022 C1.26688609 19.19340619 1.23683076 15.99455225 1.20532227 12.7956543 C1.1995668 11.84331406 1.19381134 10.89097382 1.18788147 9.90977478 C1.17809265 9.03899292 1.16830383 8.16821106 1.15821838 7.27104187 C1.15176583 6.51424983 1.14531328 5.75745779 1.1386652 4.97773266 C1.06762914 2.78771907 1.06762914 2.78771907 0 0 Z " fill="#9ACBFE" transform="translate(345,245)"/>
<path d="M0 0 C3.99195609 1.49420104 7.64267806 3.35921917 11.375 5.4140625 C11.98077881 5.74739594 12.58655762 6.08072937 13.21069336 6.42416382 C14.49233049 7.13045804 15.77315891 7.8382215 17.05322266 8.54736328 C18.96402909 9.60508834 20.87825981 10.65639101 22.79296875 11.70703125 C29.88169682 15.61302059 36.82774749 19.68510568 43.70019531 23.96435547 C49.6967387 27.66361404 55.79114044 31.19688761 61.875 34.75 C63.15371857 35.49857368 64.43236463 36.24727124 65.7109375 36.99609375 C71.78762845 40.58468819 71.78762845 40.58468819 77.93023682 44.05725098 C82.89738526 46.79477053 82.89738526 46.79477053 84 49 C85.64363134 49.72159424 87.31050386 50.39351421 89 51 C87.57779967 53.84440065 85.76164283 54.17508535 82.875 55.4375 C81.94429688 55.84871094 81.01359375 56.25992188 80.0546875 56.68359375 C79.04664063 57.11800781 78.03859375 57.55242187 77 58 C75.89269531 58.50273437 74.78539062 59.00546875 73.64453125 59.5234375 C57.01268006 66.26174377 39.09563248 66.63658485 21.625 63.4375 C20.86590332 63.30601562 20.10680664 63.17453125 19.32470703 63.0390625 C11.61560994 61.41852169 4.9026187 57.66287913 -2 54 C-1.88045138 48.39889752 -1.75614011 42.79792681 -1.62768555 37.19702148 C-1.58475512 35.29731004 -1.54305705 33.39757028 -1.50268555 31.49780273 C-1.27803846 20.96712385 -0.99666699 10.4912958 0 0 Z " fill="#9ACBFE" transform="translate(264,351)"/>
<path d="M0 0 C0.49959229 0.3403125 0.99918457 0.680625 1.51391602 1.03125 C8.20619687 5.54529436 15.05470489 9.78394128 21.9375 14 C23.05318359 14.68578125 24.16886719 15.3715625 25.31835938 16.078125 C26.41857422 16.75359375 27.51878906 17.4290625 28.65234375 18.125 C29.7182373 18.78113281 30.78413086 19.43726563 31.88232422 20.11328125 C33.91977767 21.34628362 35.97321186 22.55335518 38.04345703 23.73046875 C38.95853027 24.25253906 39.87360352 24.77460938 40.81640625 25.3125 C42.03179077 25.98732422 42.03179077 25.98732422 43.27172852 26.67578125 C43.84205811 27.11277344 44.4123877 27.54976563 45 28 C45 28.99 45 29.98 45 31 C44.31301025 31.3810791 43.62602051 31.7621582 42.91821289 32.15478516 C28.34189192 40.24213639 13.77744394 48.34987457 -0.76171875 56.50390625 C-5.09463469 58.93382914 -9.43097188 61.35751179 -13.76953125 63.77734375 C-14.88569824 64.4005249 -16.00186523 65.02370605 -17.15185547 65.66577148 C-19.26868293 66.84750166 -21.38614735 68.02809194 -23.50439453 69.20727539 C-29.0885132 72.32699096 -34.59247782 75.53606549 -40.02368164 78.91601562 C-42 80 -42 80 -44 80 C-43.74248548 74.65996205 -43.40820227 69.33064138 -43 64 C-42.92394531 62.97648437 -42.84789062 61.95296875 -42.76953125 60.8984375 C-41.0297681 46.36629828 -32.8856145 31.46649838 -24 20 C-23.34 20 -22.68 20 -22 20 C-21.731875 19.360625 -21.46375 18.72125 -21.1875 18.0625 C-20 16 -20 16 -17 15 C-17 14.34 -17 13.68 -17 13 C-15.43945312 11.57958984 -15.43945312 11.57958984 -13.28125 9.9609375 C-12.13076172 9.09082031 -12.13076172 9.09082031 -10.95703125 8.203125 C-10.14621094 7.59984375 -9.33539063 6.9965625 -8.5 6.375 C-7.68917969 5.76398438 -6.87835938 5.15296875 -6.04296875 4.5234375 C-4.03282573 3.00991805 -2.01842299 1.50244941 0 0 Z " fill="#9ACBFE" transform="translate(260,248)"/>
<path d="M0 0 C-1.04160157 25.32169332 -7.56583535 45.91093671 -26 64 C-26.72960937 64.76441406 -27.45921875 65.52882813 -28.2109375 66.31640625 C-32.49061338 70.75830811 -36.29606338 74.53947832 -42 77 C-45.4105782 76.5617865 -48.00353261 74.98983657 -50.9375 73.26171875 C-51.90623047 72.69404785 -52.87496094 72.12637695 -53.87304688 71.54150391 C-54.90494141 70.92968262 -55.93683594 70.31786133 -57 69.6875 C-58.58651367 68.75429932 -58.58651367 68.75429932 -60.20507812 67.80224609 C-70.17251037 61.92826111 -80.09837566 55.98416961 -90 50 C-87.17134185 46.93575787 -84.46301264 44.95418171 -80.78125 43.01171875 C-79.77255859 42.47377686 -78.76386719 41.93583496 -77.72460938 41.3815918 C-76.12842773 40.54301636 -76.12842773 40.54301636 -74.5 39.6875 C-72.31169899 38.52233647 -70.12418798 37.35568794 -67.9375 36.1875 C-66.89851563 35.63320313 -65.85953125 35.07890625 -64.7890625 34.5078125 C-61.64263991 32.80680533 -58.56675474 31.02755285 -55.5 29.1875 C-51.36404633 26.72860691 -47.13402476 24.54689977 -42.8125 22.4375 C-30.51557449 16.42774742 -18.56755399 9.62279722 -6.77001953 2.68945312 C-2.19345892 0 -2.19345892 0 0 0 Z " fill="#8095FD" transform="translate(396,325)"/>
<path d="M0 0 C2.87571347 3.08828641 3.37039623 5.14452777 3.34057617 9.31933594 C3.34034958 10.38013367 3.34012299 11.4409314 3.33988953 12.53387451 C3.32440567 13.67253967 3.30892181 14.81120483 3.29296875 15.984375 C3.28872391 17.15510559 3.28447906 18.32583618 3.28010559 19.53204346 C3.26331175 23.27159616 3.22565704 27.01061015 3.1875 30.75 C3.17245413 33.28514847 3.15876556 35.82030538 3.14648438 38.35546875 C3.11340585 44.57049633 3.06319883 50.78520968 3 57 C-6.42401077 52.00323446 -15.80992251 46.94804324 -25.125 41.75 C-26.2078125 41.151875 -27.290625 40.55375 -28.40625 39.9375 C-29.45039063 39.35484375 -30.49453125 38.7721875 -31.5703125 38.171875 C-32.49602051 37.6572168 -33.42172852 37.14255859 -34.37548828 36.61230469 C-37.11116987 34.9317055 -39.51956733 33.03380793 -42 31 C-43.64524505 29.98525182 -45.31416095 29.00827578 -47 28.0625 C-52.99590519 24.62454939 -58.87784023 21.01998325 -64.75 17.375 C-65.636875 16.82465088 -66.52375 16.27430176 -67.4375 15.70727539 C-69.14811446 14.6443833 -70.85715921 13.57895983 -72.56445312 12.51074219 C-74.17395741 11.51238488 -75.79242447 10.52831877 -77.41992188 9.55957031 C-78.51916992 8.89973145 -78.51916992 8.89973145 -79.640625 8.2265625 C-80.29063477 7.84322754 -80.94064453 7.45989258 -81.61035156 7.06494141 C-82.06893555 6.71351074 -82.52751953 6.36208008 -83 6 C-83 5.34 -83 4.68 -83 4 C-78.35955757 0.13296465 -73.23631074 -1.40059779 -67.51171875 -3.16796875 C-65.08808161 -3.76229069 -65.08808161 -3.76229069 -64 -5 C-43.53280061 -9.26422294 -18.94997486 -10.58440051 0 0 Z " fill="#8095FD" transform="translate(344,244)"/>
<path d="M0 0 C1.03936203 -0.0066568 2.07872406 -0.0133136 3.14958191 -0.02017212 C5.34587844 -0.03028348 7.54220561 -0.03498961 9.73852539 -0.03466797 C13.08336567 -0.03903365 16.42687801 -0.07534993 19.77148438 -0.11328125 C21.91015176 -0.11915134 24.04882538 -0.12311945 26.1875 -0.125 C27.18046585 -0.13937103 28.1734317 -0.15374207 29.19648743 -0.16854858 C36.40650373 -0.12156427 41.79438078 1.31688572 47.31640625 6.08203125 C47.98542969 6.91927734 47.98542969 6.91927734 48.66796875 7.7734375 C49.36019531 8.60681641 49.36019531 8.60681641 50.06640625 9.45703125 C56.46068913 19.25209515 53.29296875 27.16786092 53.29296875 40.3359375 C26.89296875 40.3359375 0.49296875 40.3359375 -26.70703125 40.3359375 C-26.70703125 12.97128426 -26.70703125 12.97128426 -20.9609375 6.3125 C-20.40277344 5.86648437 -19.84460938 5.42046875 -19.26953125 4.9609375 C-18.71394531 4.49945313 -18.15835938 4.03796875 -17.5859375 3.5625 C-11.92110996 -0.13553711 -6.56994514 0.01463645 0 0 Z " fill="#FC415A" transform="translate(112.70703125,85.6640625)"/>
<path d="M0 0 C39.93 0.33 79.86 0.66 121 1 C121 3.97 121 6.94 121 10 C120 11 120 11 118.01848507 11.12304783 C116.70354738 11.12166514 116.70354738 11.12166514 115.36204529 11.12025452 C114.35938629 11.12162918 113.35672729 11.12300385 112.32368469 11.12442017 C111.21454208 11.12082489 110.10539948 11.11722961 108.96264648 11.11352539 C107.80182556 11.11367142 106.64100464 11.11381744 105.44500732 11.1139679 C101.58701748 11.11326817 97.72907522 11.10547298 93.87109375 11.09765625 C91.20451272 11.09579228 88.53793436 11.09431912 85.87135315 11.09336853 C79.5567112 11.09025548 73.24208649 11.08204244 66.92745215 11.07201904 C59.74014367 11.0608571 52.55283439 11.05534725 45.3655194 11.05032361 C30.5770039 11.0398598 15.78850282 11.02206037 1 11 C0.67 7.37 0.34 3.74 0 0 Z " fill="#465688" transform="translate(25,190)"/>
<path d="M0 0 C0.99 0.33 1.98 0.66 3 1 C2.67 4.63 2.34 8.26 2 12 C-5.67536977 12.02255523 -13.35072729 12.04091753 -21.02612209 12.05181217 C-24.58977422 12.05703995 -28.15340257 12.06413569 -31.71704102 12.07543945 C-35.81006097 12.08834176 -39.9030558 12.09322906 -43.99609375 12.09765625 C-45.92418129 12.10539818 -45.92418129 12.10539818 -47.89122009 12.11329651 C-49.66294334 12.11340981 -49.66294334 12.11340981 -51.47045898 12.11352539 C-53.03932106 12.11685631 -53.03932106 12.11685631 -54.63987732 12.12025452 C-57 12 -57 12 -58 11 C-58 8.03 -58 5.06 -58 2 C-29.29 1.505 -29.29 1.505 0 1 C0 0.67 0 0.34 0 0 Z " fill="#465688" transform="translate(484,189)"/>
<path d="M0 0 C0.99 0.33 1.98 0.66 3 1 C3.16831707 8.04736512 3.32819048 15.09488542 3.48217773 22.14257812 C3.53556744 24.54040877 3.59089442 26.93819709 3.64819336 29.3359375 C3.73018845 32.78115717 3.80522965 36.22646865 3.87890625 39.671875 C3.90594131 40.74491882 3.93297638 41.81796265 3.96083069 42.92352295 C3.98092697 43.92425842 4.00102325 44.9249939 4.02172852 45.95605469 C4.04171402 46.83541687 4.06169952 47.71477905 4.08229065 48.62078857 C4.00341327 50.90131442 3.64562907 52.81862369 3 55 C3.66 55 4.32 55 5 55 C4.67 55.99 4.34 56.98 4 58 C3.90917846 59.41114979 3.87210915 60.82616577 3.87060547 62.24023438 C3.86745331 63.09121704 3.86430115 63.94219971 3.86105347 64.81896973 C3.8630777 65.73464722 3.86510193 66.65032471 3.8671875 67.59375 C3.86623077 68.53682007 3.86527405 69.47989014 3.86428833 70.45153809 C3.86360785 72.44539456 3.86545296 74.43925325 3.86962891 76.43310547 C3.874979 79.48800627 3.86967945 82.54276004 3.86328125 85.59765625 C3.86394205 87.53385449 3.86522327 89.47005264 3.8671875 91.40625 C3.86516327 92.32192749 3.86313904 93.23760498 3.86105347 94.18103027 C3.86420563 95.03201294 3.86735779 95.88299561 3.87060547 96.75976562 C3.87140106 97.50794556 3.87219666 98.25612549 3.87301636 99.02697754 C3.92964808 101.21335041 3.92964808 101.21335041 5 104 C4.505 104.99 4.505 104.99 4 106 C3.34 106 2.68 106 2 106 C1.98969254 104.71626999 1.97938507 103.43253998 1.96876526 102.10990906 C1.87113019 90.02883969 1.76840554 77.94782297 1.66066074 65.86683941 C1.60542892 59.6554665 1.55200843 53.44408888 1.50268555 47.23266602 C1.45504592 41.24152774 1.40270314 35.25044753 1.34705925 29.25937843 C1.3266339 26.97039035 1.30792112 24.68138634 1.29092598 22.39237022 C1.26688609 19.19340619 1.23683076 15.99455225 1.20532227 12.7956543 C1.1995668 11.84331406 1.19381134 10.89097382 1.18788147 9.90977478 C1.17809265 9.03899292 1.16830383 8.16821106 1.15821838 7.27104187 C1.15176583 6.51424983 1.14531328 5.75745779 1.1386652 4.97773266 C1.06762914 2.78771907 1.06762914 2.78771907 0 0 Z " fill="#9AB8FE" transform="translate(345,245)"/>
<path d="M0 0 C-0.33 0.99 -0.66 1.98 -1 3 C-1.99 3.33 -2.98 3.66 -4 4 C-4.33 4.66 -4.66 5.32 -5 6 C-6.64821244 7.03013277 -8.31503702 8.03114628 -10 9 C-11.23180185 10.00752896 -11.23180185 10.00752896 -11.09765625 12.05932617 C-11.08605469 12.96142822 -11.07445312 13.86353027 -11.0625 14.79296875 C-11.04993164 16.31289429 -11.04993164 16.31289429 -11.03710938 17.86352539 C-11.02486328 18.96043701 -11.01261719 20.05734863 -11 21.1875 C-10.92376522 33.15549378 -11.33559317 45.05254154 -12 57 C-12.33 57 -12.66 57 -13 57 C-13.2795778 50.0083649 -13.47179445 43.01817471 -13.60424805 36.0222168 C-13.65947101 33.64439037 -13.73447081 31.26693592 -13.82983398 28.89038086 C-14.60454173 9.08354796 -14.60454173 9.08354796 -10.57275391 3.84814453 C-7.16106983 1.63737325 -4.12835552 0 0 0 Z " fill="#636CF1" transform="translate(278,294)"/>
<path d="M0 0 C-0.33 4.95 -0.66 9.9 -1 15 C-1.33 15 -1.66 15 -2 15 C-2.33 11.04 -2.66 7.08 -3 3 C-4.36125 4.0209375 -4.36125 4.0209375 -5.75 5.0625 C-9 7 -9 7 -11.203125 6.62109375 C-11.79609375 6.41613281 -12.3890625 6.21117187 -13 6 C-11.21118264 4.99491199 -9.41885304 3.99607264 -7.625 3 C-6.62726563 2.443125 -5.62953125 1.88625 -4.6015625 1.3125 C-2 0 -2 0 0 0 Z " fill="#839BED" transform="translate(396,325)"/>
<path d="M0 0 C0.66 0.33 1.32 0.66 2 1 C-3.75 5 -3.75 5 -6 5 C-6.33 8.96 -6.66 12.92 -7 17 C-6.34 17 -5.68 17 -5 17 C-5.33 17.99 -5.66 18.98 -6 20 C-8.77042109 17.22957891 -8.39796106 15.23466195 -8.625 11.375 C-8.69976562 10.18648438 -8.77453125 8.99796875 -8.8515625 7.7734375 C-8.90054688 6.85820312 -8.94953125 5.94296875 -9 5 C-7.54735962 4.1361871 -6.0876837 3.28419546 -4.625 2.4375 C-3.40683594 1.72400391 -3.40683594 1.72400391 -2.1640625 0.99609375 C-1.44992188 0.66738281 -0.73578125 0.33867187 0 0 Z " fill="#849BF0" transform="translate(225,323)"/>
<path d="M0 0 C0.66 0 1.32 0 2 0 C1.28571429 8.57142857 1.28571429 8.57142857 -2 12 C-3.40907283 9.18185434 -2.50872691 7.82722796 -1.5625 4.875 C-1.27503906 3.96492188 -0.98757813 3.05484375 -0.69140625 2.1171875 C-0.46324219 1.41851562 -0.23507812 0.71984375 0 0 Z " fill="#91A0EF" transform="translate(391,347)"/>
<path d="M0 0 C0.66 0.99 1.32 1.98 2 3 C-0.58789062 4.07421875 -0.58789062 4.07421875 -3.17578125 5.1484375 C-5.26533932 6.06806692 -5.26533932 6.06806692 -8 8 C-8.66 7.34 -9.32 6.68 -10 6 C-6.7 4.02 -3.4 2.04 0 0 Z " fill="#616EF2" transform="translate(301,280)"/>
<path d="M0 0 C3.37503669 1.1858237 5.64722731 2.27573689 8 5 C5.36 5 2.72 5 0 5 C0 3.35 0 1.7 0 0 Z " fill="#A5C4FE" transform="translate(264,351)"/>
<path d="M0 0 C0.66 0.99 1.32 1.98 2 3 C-2 5 -6 7 -10 9 C-6.83047153 5.73991357 -3.60062011 2.77762123 0 0 Z " fill="#A6CAF6" transform="translate(260,248)"/>
<path d="M0 0 C-1.6232687 0.6708712 -3.24867578 1.33657029 -4.875 2 C-6.23238281 2.556875 -6.23238281 2.556875 -7.6171875 3.125 C-10 4 -10 4 -12 4 C-12 3.34 -12 2.68 -12 2 C-10.75579353 1.4654744 -9.50429064 0.94791389 -8.25 0.4375 C-7.55390625 0.14746094 -6.8578125 -0.14257812 -6.140625 -0.44140625 C-3.69987216 -1.07831803 -2.3596345 -0.80248831 0 0 Z " fill="#6B7996" transform="translate(267,202)"/>
<path d="M0 0 C1.11651815 3.34955444 0.99822121 4.67259596 0 8 C-1.5625 9.8125 -1.5625 9.8125 -3 11 C-2.44894091 7.0507432 -1.61064629 3.65079826 0 0 Z " fill="#AED1F9" transform="translate(222,293)"/>
<path d="M0 0 C0.99 0 1.98 0 3 0 C2.34 2.31 1.68 4.62 1 7 C0.34 7 -0.32 7 -1 7 C-1.04254356 5.00045254 -1.04080783 2.99958364 -1 1 C-0.67 0.67 -0.34 0.34 0 0 Z " fill="#63718D" transform="translate(181,280)"/>
<path d="M0 0 C-1 3 -1 3 -4 5 C-6.1875 4.625 -6.1875 4.625 -8 4 C-2.25 0 -2.25 0 0 0 Z " fill="#DAEAFE" transform="translate(361,398)"/>
</svg>
