<?xml version="1.0" encoding="UTF-8"?>
<svg version="1.1" xmlns="http://www.w3.org/2000/svg" width="512" height="512">
<path d="M0 0 C0.7330696 -0.00350607 1.4661392 -0.00701215 2.22142303 -0.01062447 C4.67314655 -0.0199142 7.12463127 -0.01502148 9.57636452 -0.01015663 C11.35378259 -0.0138941 13.13119902 -0.01849601 14.90861285 -0.02388728 C19.78951905 -0.03612047 24.67035674 -0.03585643 29.55127478 -0.03349853 C34.81655083 -0.03309045 40.08180489 -0.04412858 45.34707069 -0.05361366 C55.66099933 -0.07022585 65.97490511 -0.07572329 76.288846 -0.07683842 C84.67151972 -0.07778869 93.05418589 -0.08189791 101.43685722 -0.08823967 C125.20038779 -0.10585184 148.96390028 -0.11507845 172.72743742 -0.11357872 C174.00851018 -0.11349881 175.28958294 -0.1134189 176.60947609 -0.11333656 C177.89211175 -0.1132548 179.17474741 -0.11317304 180.49625082 -0.1130888 C201.28933917 -0.11227567 222.08235512 -0.1314203 242.87542252 -0.1596133 C264.22275702 -0.18832961 285.57005619 -0.20215431 306.91741049 -0.20042574 C318.90352538 -0.19976146 330.88956435 -0.20527066 342.87566185 -0.22678185 C353.07946771 -0.24497702 363.28316323 -0.24935455 373.48697828 -0.235763 C378.6931542 -0.22922529 383.89911832 -0.22914529 389.1052742 -0.2464695 C393.87228517 -0.26216933 398.63891584 -0.25936813 403.40591736 -0.24190123 C405.12927711 -0.23882456 406.85266502 -0.2424888 408.57599156 -0.25362138 C420.79112016 -0.3272967 429.49310744 0.87036039 438.71006203 9.46430016 C444.22968786 15.20921683 446.67891417 21.268408 446.68998718 29.18661785 C446.69643607 30.35646797 446.70288497 31.5263181 446.70952928 32.73161823 C446.70488347 34.64555913 446.70488347 34.64555913 446.70014381 36.59816551 C446.70388197 37.97461546 446.70848416 39.3510633 446.71387446 40.72750777 C446.72609938 44.50472622 446.7258446 48.28185606 446.72348571 52.05908978 C446.72307741 56.13487303 446.73411788 60.21062792 446.74360085 64.28639793 C446.76020893 72.26965043 446.7657103 80.25287339 446.7668256 88.23614172 C446.76777615 94.72572407 446.77188677 101.21529668 446.77822685 107.70487595 C446.79583859 126.10657552 446.80506581 144.50825177 446.8035659 162.90995983 C446.80348599 163.90185942 446.80340608 164.89375902 446.80332375 165.91571617 C446.80324198 166.9088277 446.80316022 167.90193923 446.80307598 168.92514505 C446.80226306 185.02037461 446.82140252 201.11551058 446.84960048 217.21071307 C446.87832968 233.73964454 446.89214076 250.26853037 446.89041293 266.79748744 C446.88974905 276.07624907 446.89524048 285.3549126 446.91676903 294.63365173 C446.93498127 302.53366003 446.9393278 310.43352575 446.92575018 318.33354596 C446.91922078 322.36305768 446.91910214 326.39229586 446.93645668 330.42178154 C446.95219393 334.11377419 446.94931755 337.80527657 446.93188842 341.49725731 C446.92737117 343.45874932 446.94247075 345.42025658 446.95836771 347.38168937 C446.87662744 357.84783536 444.36654445 364.87608113 437.22568703 372.53461266 C431.54532942 377.99221114 425.50850313 380.50946796 417.66563797 380.50336456 C416.5320383 380.50734666 415.39843864 380.51132876 414.23048747 380.51543152 C412.99507916 380.50960584 411.75967086 380.50378016 410.48682594 380.49777794 C409.15346106 380.49865051 407.82009652 380.50040244 406.48673379 380.50295627 C402.82893905 380.50742369 399.17126165 380.49943447 395.51348186 380.48940015 C391.56672025 380.48075921 387.6199652 380.48368627 383.67319679 380.4852047 C376.83719885 380.48625314 370.00123911 380.47998078 363.16525078 380.46872902 C353.28157765 380.45247149 343.39792298 380.44726575 333.51423793 380.44475304 C317.47842794 380.44037633 301.44263831 380.42706789 285.40683937 380.40814781 C269.83001749 380.38978838 254.25320114 380.37563218 238.67637062 380.36713219 C237.23601627 380.36634402 237.23601627 380.36634402 235.76656385 380.36553992 C230.94931675 380.36292984 226.1320696 380.36040243 221.31482244 380.35791612 C181.3541068 380.33718438 141.39341388 380.30195951 101.43271828 380.25726891 C101.31527378 368.83524444 104.90544263 359.99812573 112.43271828 351.25726891 C119.21289649 344.82301815 128.37077757 340.11591026 137.83408546 340.14374352 C139.12497078 340.14385681 139.12497078 340.14385681 140.44193459 340.1439724 C141.36186195 340.14913368 142.28178932 340.15429497 143.22959328 340.15961266 C144.65274849 340.16173508 144.65274849 340.16173508 146.10465431 340.16390038 C149.1307079 340.16949149 152.15668711 340.18204238 155.18271828 340.19476891 C157.23610262 340.19978505 159.28948813 340.20434776 161.34287453 340.20844078 C166.37287405 340.2186065 171.40271305 340.23818373 176.43271828 340.25726891 C176.43271828 327.05726891 176.43271828 313.85726891 176.43271828 300.25726891 C168.17397682 300.29654503 168.17397682 300.29654503 159.74839211 300.33661461 C141.54378165 300.41951595 123.3391637 300.47496882 105.13441372 300.51632977 C94.09841515 300.54207178 83.06259588 300.57714568 72.02671242 300.63446617 C62.40378449 300.68442378 52.78098647 300.71658899 43.15793246 300.72771138 C38.06621091 300.73420923 32.97486088 300.7493972 27.88325882 300.78591919 C23.08236328 300.82007414 18.28198924 300.83028278 13.48098373 300.82280731 C11.72711533 300.82417319 9.97322792 300.83398882 8.21946526 300.85329628 C-7.39362399 301.01662736 -19.49884766 297.9560945 -31.56728172 287.25726891 C-40.17508456 278.02181378 -43.87645027 267.28472923 -43.84143639 254.84720421 C-43.84667306 253.91934565 -43.85190974 252.9914871 -43.85730511 252.03551161 C-43.87226691 248.93669788 -43.87300943 245.83804983 -43.87367821 242.7392025 C-43.88130235 240.51298304 -43.88973029 238.28676622 -43.89890099 236.0605526 C-43.92083003 230.0189595 -43.92964299 223.97741703 -43.93472743 217.93578863 C-43.93837346 214.15779682 -43.94461487 210.37981821 -43.95172882 206.60183144 C-43.97118029 196.12568513 -43.98769583 185.64954674 -43.99060535 175.17338181 C-43.99079292 174.50378259 -43.99098049 173.83418338 -43.99117375 173.14429329 C-43.99153998 171.78706018 -43.99190368 170.42982708 -43.99226486 169.07259397 C-43.99244767 168.39893221 -43.99263048 167.72527044 -43.99281883 167.03119469 C-43.99299938 166.35670307 -43.99317993 165.68221144 -43.99336595 164.98728068 C-43.99690456 154.06798966 -44.0239103 143.14889622 -44.06131672 132.22967367 C-44.09948245 120.99818996 -44.11832323 109.76680079 -44.11906487 98.53524077 C-44.11985647 92.23754684 -44.1285415 85.94010787 -44.15706253 79.64247322 C-44.18330889 73.71455243 -44.18541134 67.78709677 -44.16940689 61.85914421 C-44.16759754 59.69086121 -44.1742363 57.52255105 -44.1902256 55.35432625 C-44.30797185 38.34181065 -42.30999177 25.50322012 -30.56728172 12.25726891 C-22.04917757 4.31806504 -11.64478635 0.01260295 0 0 Z M226.43271828 300.25726891 C226.43271828 313.45726891 226.43271828 326.65726891 226.43271828 340.25726891 C239.63271828 340.25726891 252.83271828 340.25726891 266.43271828 340.25726891 C266.43271828 327.05726891 266.43271828 313.85726891 266.43271828 300.25726891 C253.23271828 300.25726891 240.03271828 300.25726891 226.43271828 300.25726891 Z " fill="#7CC7EF" transform="translate(54.56728172302246,65.74273109436035)"/>
<path d="M0 0 C59.4 0 118.8 0 180 0 C180.1613254 66.64083244 180.1613254 66.64083244 180.1953125 94.47070312 C180.2031438 100.84057659 180.21122567 107.21044966 180.21972656 113.58032227 C180.22078156 114.37866417 180.22183655 115.17700607 180.22292352 115.99954015 C180.24031307 128.88228767 180.27184409 141.76496365 180.30861118 154.64766877 C180.34603874 167.87224289 180.36823969 181.09677961 180.37635398 194.32140452 C180.381838 202.47943596 180.3991486 210.63726529 180.43166587 218.79523451 C180.45534155 225.05447646 180.45781525 231.31356484 180.45243073 237.57284546 C180.45353086 240.13788153 180.46148335 242.70292528 180.4768219 245.26791573 C180.49675164 248.77267651 180.49192727 252.27657568 180.48101807 255.78135681 C180.49266943 256.79402443 180.5043208 257.80669206 180.51632524 258.85004658 C180.43573073 268.44329268 177.29828464 275.30042713 170.79296875 282.27734375 C165.11261114 287.73494223 159.07578486 290.25219905 151.23291969 290.24609566 C150.09932003 290.25007775 148.96572036 290.25405985 147.79776919 290.25816262 C146.56236089 290.25233693 145.32695258 290.24651125 144.05410767 290.24050903 C142.72074278 290.2413816 141.38737824 290.24313354 140.05401552 290.24568737 C136.39622077 290.25015478 132.73854338 290.24216557 129.08076358 290.23213124 C125.13400197 290.22349031 121.18724692 290.22641736 117.24047852 290.22793579 C110.40448058 290.22898423 103.56852083 290.22271187 96.7325325 290.21146011 C86.84885937 290.19520259 76.9652047 290.18999685 67.08151965 290.18748413 C51.04570966 290.18310743 35.00992003 290.16979898 18.97412109 290.15087891 C3.39729921 290.13251948 -12.17951714 290.11836328 -27.75634766 290.10986328 C-29.19670201 290.10907511 -29.19670201 290.10907511 -30.66615443 290.10827102 C-35.48340153 290.10566093 -40.30064867 290.10313352 -45.11789584 290.10064721 C-85.07861148 290.07991548 -125.0393044 290.04469061 -165 290 C-165.1174445 278.57797553 -161.52727565 269.74085683 -154 261 C-147.21982178 254.56574924 -138.0619407 249.85864135 -128.59863281 249.88647461 C-127.3077475 249.88658791 -127.3077475 249.88658791 -125.99078369 249.88670349 C-125.07085632 249.89186478 -124.15092896 249.89702606 -123.203125 249.90234375 C-121.77996979 249.90446617 -121.77996979 249.90446617 -120.32806396 249.90663147 C-117.30201038 249.91222258 -114.27603117 249.92477348 -111.25 249.9375 C-109.19661565 249.94251615 -107.14323014 249.94707885 -105.08984375 249.95117188 C-100.05984423 249.9613376 -95.03000523 249.98091482 -90 250 C-90 236.8 -90 223.6 -90 210 C-98.25874146 210.03927612 -98.25874146 210.03927612 -106.68432617 210.0793457 C-124.88893663 210.16224704 -143.09355458 210.21769991 -161.29830456 210.25906086 C-172.33430312 210.28480288 -183.3701224 210.31987677 -194.40600586 210.37719727 C-204.02893378 210.42715487 -213.65173181 210.45932008 -223.27478582 210.47044247 C-228.36650736 210.47694032 -233.4578574 210.49212829 -238.54945946 210.52865028 C-243.350355 210.56280524 -248.15072903 210.57301388 -252.95173454 210.56553841 C-254.70560295 210.56690429 -256.45949036 210.57671992 -258.21325302 210.59602737 C-273.82634227 210.75935846 -285.93156593 207.6988256 -298 197 C-306.6363175 187.73395101 -310 177.56824382 -310 165 C-207.7 165 -105.4 165 0 165 C0 110.55 0 56.1 0 0 Z M-40 210 C-40 223.2 -40 236.4 -40 250 C-26.8 250 -13.6 250 0 250 C0 236.8 0 223.6 0 210 C-13.2 210 -26.4 210 -40 210 Z " fill="#093C55" transform="translate(321,156)"/>
<path d="M0 0 C102.3 0 204.6 0 310 0 C310 38 310 38 309 44 C307.85934082 44.02505615 306.71868164 44.0501123 305.54345703 44.07592773 C301.32035659 44.16994293 297.09742291 44.27017787 292.87451172 44.37231445 C291.04512425 44.41568565 289.21569573 44.45735911 287.38623047 44.49731445 C284.75996514 44.55496418 282.1339069 44.61867365 279.5078125 44.68359375 C278.68693146 44.70030624 277.86605042 44.71701874 277.02029419 44.73423767 C272.8766304 44.7431387 272.8766304 44.7431387 269 46 C265.99272477 46.09485824 263.00882376 46.12737795 260.00138855 46.11593628 C259.05738436 46.11623498 258.11338016 46.11653368 257.14076978 46.11684144 C253.95734856 46.11648381 250.77398746 46.10879607 247.59057617 46.10107422 C245.31583687 46.0991163 243.04109723 46.09753311 240.76635742 46.09629822 C233.27520678 46.09012111 225.78409835 46.07289054 218.29296875 46.0546875 C215.71465879 46.04889735 213.13634878 46.04313087 210.55803871 46.03738785 C199.82901519 46.01269565 189.10000677 45.9852765 178.37101269 45.95004082 C175.58563944 45.9409405 172.80026609 45.93187041 170.01489258 45.92285156 C169.32262037 45.920607 168.63034817 45.91836243 167.91709802 45.91604985 C156.7227444 45.88031667 145.52846 45.86497092 134.33405527 45.85809408 C122.83144472 45.85067956 111.32902083 45.82405059 99.82648832 45.78014576 C93.37226917 45.75599697 86.91827841 45.74007056 80.46401024 45.74441147 C74.38424141 45.74806118 68.30499744 45.72802777 62.22534943 45.69023323 C60.00066279 45.68043616 57.77592004 45.67901855 55.55122566 45.68686104 C38.37143976 45.74003195 25.38253344 43.86379198 12 32 C3.3636825 22.73395101 0 12.56824382 0 0 Z " fill="#00506A" transform="translate(11,321)"/>
<path d="M0 0 C1.09612106 -0.0071553 2.19224213 -0.01431061 3.32157898 -0.02168274 C4.51440994 -0.02437164 5.70724091 -0.02706055 6.93621826 -0.02983093 C8.2002095 -0.03640213 9.46420074 -0.04297333 10.76649475 -0.04974365 C14.94903307 -0.07071187 19.13157145 -0.08113878 23.31414795 -0.09111023 C24.75803394 -0.0951604 26.20191975 -0.0992774 27.64580536 -0.10346031 C34.43052767 -0.12249555 41.21523921 -0.13673044 47.99998307 -0.14507228 C55.81454079 -0.15484081 63.62881497 -0.18115706 71.44327283 -0.22157317 C77.49527126 -0.25179293 83.54718866 -0.26654666 89.59926105 -0.26985329 C93.2085066 -0.27219694 96.81744868 -0.28106743 100.42661285 -0.30631447 C104.45733827 -0.33405687 108.48743451 -0.32974625 112.51824951 -0.32279968 C113.70298355 -0.33560974 114.88771759 -0.3484198 116.10835266 -0.36161804 C126.33049823 -0.29752134 133.29442246 2.39011708 140.7633667 9.35420227 C154.51609451 23.66826591 148.48602295 42.83584416 148.48602295 62.14717102 C89.08602295 62.14717102 29.68602295 62.14717102 -31.51397705 62.14717102 C-31.51397705 17.36939324 -31.51397705 17.36939324 -22.13897705 7.64717102 C-15.25782039 2.48630352 -8.615873 0.03876824 0 0 Z " fill="#005069" transform="translate(352.51397705078125,65.85282897949219)"/>
<path d="M0 0 C59.4 0 118.8 0 180 0 C180 9.24 180 18.48 180 28 C120.6 28 61.2 28 0 28 C0 18.76 0 9.52 0 0 Z " fill="#FCDD89" transform="translate(321,128)"/>
<path d="M0 0 C6.96008302 -0.02290338 13.92003633 -0.04283219 20.88012695 -0.05493164 C23.24992312 -0.05997341 25.61971615 -0.06680665 27.98950195 -0.07543945 C31.38754039 -0.0875119 34.78553785 -0.09322971 38.18359375 -0.09765625 C39.25024765 -0.10281754 40.31690155 -0.10797882 41.4158783 -0.11329651 C42.88729027 -0.11340981 42.88729027 -0.11340981 44.38842773 -0.11352539 C45.25668686 -0.115746 46.12494598 -0.11796661 47.01951599 -0.12025452 C49 0 49 0 50 1 C50.08865208 3.8843382 50.11521296 6.74462158 50.09765625 9.62890625 C50.0962413 10.49313705 50.09482635 11.35736786 50.09336853 12.24778748 C50.08775239 15.01939292 50.07519719 17.7909188 50.0625 20.5625 C50.05748708 22.4368478 50.05292381 24.31119685 50.04882812 26.18554688 C50.03777772 30.79039544 50.0205023 35.39518421 50 40 C44.48649415 40.02490465 38.97302178 40.04295608 33.45947266 40.05493164 C31.58772205 40.05992942 29.71597529 40.06672988 27.84423828 40.07543945 C25.13833665 40.08770621 22.43248708 40.093274 19.7265625 40.09765625 C18.90322418 40.10281754 18.07988586 40.10797882 17.2315979 40.11329651 C11.36246378 40.11385058 5.9083059 39.59083059 0 39 C0 26.13 0 13.26 0 0 Z " fill="#093A52" transform="translate(231,366)"/>
<path d="M0 0 C1.25843216 -0.00960754 2.51686432 -0.01921509 3.81343079 -0.02911377 C5.18445656 -0.03396238 6.55548445 -0.03824106 7.92651367 -0.04199219 C9.33892314 -0.04774905 10.7513326 -0.05350671 12.16374207 -0.05926514 C15.12348798 -0.06975791 18.08320687 -0.07561172 21.04296875 -0.07910156 C24.822344 -0.08458024 28.60135789 -0.10860177 32.38062 -0.13707352 C35.29840617 -0.15576363 38.21610642 -0.16090888 41.13394737 -0.16243744 C42.52651633 -0.16545055 43.91908425 -0.17343347 45.31159401 -0.18662262 C58.94531782 -0.3065295 58.94531782 -0.3065295 64.78198242 3.16113281 C67.23499315 6.25405938 67.17452027 9.31426191 66.78198242 13.16113281 C65.05942303 16.95076347 63.64358857 18.67605877 59.78198242 20.16113281 C56.91838074 20.42182922 56.91838074 20.42182922 53.56396484 20.43579102 C52.30553268 20.44532303 51.04710052 20.45485504 49.75053406 20.4646759 C48.37950614 20.46441441 47.00847822 20.46347703 45.63745117 20.46191406 C44.22504043 20.46580367 42.81263085 20.47013888 41.40022278 20.47489929 C38.44044199 20.4823558 35.48078048 20.48207515 32.52099609 20.47680664 C28.74158795 20.47102354 24.96267173 20.48791714 21.18334484 20.51115131 C18.26554035 20.52593964 15.3478528 20.52675328 12.43001747 20.52364159 C11.03745871 20.5241526 9.64489303 20.52934883 8.25237083 20.53945351 C-5.48903239 20.62690539 -5.48903239 20.62690539 -11.21801758 17.16113281 C-13.4320486 13.59943074 -13.64843051 10.29309693 -13.21801758 6.16113281 C-11.96801758 3.34863281 -11.96801758 3.34863281 -10.21801758 1.16113281 C-6.86517954 -0.05987572 -3.53859619 0.02182699 0 0 Z " fill="#FA382F" transform="translate(404.218017578125,355.8388671875)"/>
<path d="M0 0 C1.26165985 -0.00630432 2.5233197 -0.01260864 3.82321167 -0.019104 C5.19740946 -0.01552332 6.57160598 -0.01142113 7.94580078 -0.00683594 C9.36060655 -0.00818402 10.77541187 -0.01012575 12.19021606 -0.01263428 C15.15419936 -0.01558071 18.118062 -0.01130471 21.08203125 -0.00195312 C24.87041311 0.00942035 28.65851089 0.00289242 32.44688225 -0.00909805 C35.36892816 -0.01634751 38.29090748 -0.01401424 41.21295547 -0.00884247 C42.6091223 -0.00751341 44.00529529 -0.0091275 45.40145493 -0.01380157 C47.35878118 -0.01891502 49.31612876 -0.00973174 51.2734375 0 C52.94078445 0.00238678 52.94078445 0.00238678 54.64181519 0.00482178 C57.99670899 0.27753368 60.66063135 0.97090554 63.76611328 2.25878906 C65.98772255 4.92472018 66.68520414 6.78344784 67.26611328 10.19628906 C66.56201253 14.50890619 64.80518473 16.14735877 61.76611328 19.25878906 C59.02073749 20.63147696 56.81625165 20.3935706 53.7434082 20.40405273 C52.4783696 20.41043259 51.21333099 20.41681244 49.90995789 20.42338562 C48.52216632 20.42491456 47.13437425 20.42602838 45.74658203 20.42675781 C44.32652248 20.42997066 42.90646327 20.43333475 41.48640442 20.43684387 C38.50630934 20.44283751 35.52624326 20.44468361 32.54614258 20.4440918 C28.73296377 20.44399034 24.91997185 20.45762466 21.10683727 20.47486401 C18.17197318 20.48600149 15.23715395 20.48801044 12.30227089 20.48748207 C10.89689809 20.48866024 9.49152407 20.49307286 8.0861721 20.50081444 C6.11647323 20.51064595 4.14671962 20.50646388 2.17700195 20.50170898 C0.49727547 20.50384651 0.49727547 20.50384651 -1.21638489 20.50602722 C-4.98275041 20.19743113 -7.81801628 19.16899149 -10.98388672 17.13378906 C-13.01027194 14.09421123 -13.3524702 10.83024446 -13.23388672 7.25878906 C-12.03848354 4.36465506 -11.13637303 2.84344539 -8.51022339 1.14215088 C-5.57034739 0.00129406 -3.15377569 0.00452105 0 0 Z " fill="#B6DB3C" transform="translate(404.23388671875,395.7412109375)"/>
<path d="M0 0 C0.886875 0.5775 1.77375 1.155 2.6875 1.75 C3.55375 2.28625 4.42 2.8225 5.3125 3.375 C9.66707761 7.72957761 11.86251448 13.10404909 12.25 19.25 C11.93499497 25.67385259 8.7022764 30.78559301 4.1875 35.1875 C-1.59257272 38.80004545 -6.55363058 39.554873 -13.3125 38.75 C-20.08182007 36.8636639 -23.68058475 32.55603753 -27.3125 26.75 C-29.36562428 22.64375145 -28.91996737 17.08160272 -27.78125 12.7109375 C-25.22817799 6.41150983 -21.72899457 2.29236504 -15.59375 -0.5234375 C-10.24774558 -2.22610329 -5.20850406 -1.96547323 0 0 Z " fill="#F9DC89" transform="translate(419.3125,247.25)"/>
<path d="M0 0 C1 3 1 3 2 7 C63.05 7 124.1 7 187 7 C186.67 7.66 186.34 8.32 186 9 C124.29 9 62.58 9 -1 9 C-1 1 -1 1 0 0 Z " fill="#0E4B5E" transform="translate(157,437)"/>
<path d="M0 0 C9.04040468 -0.11592622 18.08055294 -0.20473108 27.12153912 -0.25906086 C31.31981881 -0.28513862 35.51758945 -0.32050223 39.71557617 -0.37719727 C43.76805932 -0.43158381 47.82005333 -0.46143425 51.87287331 -0.47438622 C53.41787223 -0.48361434 54.96284483 -0.50163536 56.50763512 -0.52865028 C58.67453914 -0.56503239 60.83943076 -0.56994204 63.0065918 -0.56762695 C64.23903122 -0.57873001 65.47147064 -0.58983307 66.74125671 -0.60127258 C70.90041025 0.16613521 72.40106813 1.73762394 75 5 C75 5.66 75 6.32 75 7 C75.66 7 76.32 7 77 7 C77.27429625 12.39449293 77.36055646 15.51925805 74 20 C72.68 19.67 71.36 19.34 70 19 C70.66 19 71.32 19 72 19 C74.1434779 14.44510945 74.73625721 10.65052597 73.375 5.75 C71.32921681 3.14627594 69.16330584 2.85815717 66 2 C62.72838324 1.71391426 62.72838324 1.71391426 59.26025391 1.77294922 C58.61564209 1.77265717 57.97103027 1.77236511 57.30688477 1.77206421 C55.19663577 1.77344685 53.08674908 1.78895689 50.9765625 1.8046875 C49.50540357 1.80842144 48.03424215 1.81126661 46.56307983 1.81326294 C42.70628902 1.82086944 38.84965079 1.840492 34.99291992 1.8626709 C31.05129052 1.88319387 27.10963627 1.89227841 23.16796875 1.90234375 C15.44524323 1.92374097 7.72264306 1.95784051 0 2 C0 1.34 0 0.68 0 0 Z " fill="#342C38" transform="translate(396,355)"/>
<path d="M0 0 C4.5862069 1.44827586 4.5862069 1.44827586 6.3125 3.75 C7.55947564 7.83101117 7.52258699 10.85030862 5.75 14.75 C3.83777143 17.20857958 2.87265454 17.90234487 0 19 C-2.91070557 19.24050903 -2.91070557 19.24050903 -6.32910156 19.22705078 C-8.25064056 19.22682419 -8.25064056 19.22682419 -10.21099854 19.22659302 C-11.60420894 19.21638051 -12.99741776 19.20594853 -14.390625 19.1953125 C-15.81980186 19.19158064 -17.24898128 19.18873448 -18.67816162 19.18673706 C-22.43305571 19.17911419 -26.18779419 19.15947739 -29.94262695 19.1373291 C-33.77683406 19.11684159 -37.61106639 19.10772914 -41.4453125 19.09765625 C-48.96361248 19.07623012 -56.4817844 19.04211056 -64 19 C-64 18.67 -64 18.34 -64 18 C-63.24911102 17.98969254 -62.49822205 17.97938507 -61.72457886 17.96876526 C-54.63319284 17.87061169 -47.54188678 17.76807261 -40.45063591 17.66066074 C-36.80533611 17.60559831 -33.16002807 17.55220599 -29.51464844 17.50268555 C-25.99382036 17.45479469 -22.47308375 17.40244482 -18.95236588 17.34705925 C-16.96168609 17.31689118 -14.9709388 17.29128943 -12.98019409 17.26576233 C-11.75938141 17.24581711 -10.53856873 17.22587189 -9.28076172 17.20532227 C-8.21042694 17.18977798 -7.14009216 17.1742337 -6.037323 17.15821838 C-2.95945423 16.99788791 -0.02741931 16.56563252 3 16 C2.505 13.525 2.505 13.525 2 11 C2.66 10.67 3.32 10.34 4 10 C3.505 6.04 3.505 6.04 3 2 C2.01 1.67 1.02 1.34 0 1 C0 0.67 0 0.34 0 0 Z " fill="#CF4948" transform="translate(464,357)"/>
<path d="M0 0 C1.921539 0.0001133 1.921539 0.0001133 3.88189697 0.00022888 C5.27510619 0.00533513 6.66831501 0.01055112 8.06152344 0.01586914 C9.49070181 0.01773507 10.91988082 0.01915815 12.34906006 0.02015686 C16.10389992 0.02396824 19.85870087 0.03378672 23.61352539 0.04486084 C27.44774855 0.05510464 31.28197802 0.05966084 35.11621094 0.06469727 C42.63445781 0.07541026 50.15267266 0.09247008 57.67089844 0.11352539 C57.67089844 0.44352539 57.67089844 0.77352539 57.67089844 1.11352539 C56.52577286 1.12232475 56.52577286 1.12232475 55.35751343 1.13130188 C48.14825361 1.18930649 40.93933635 1.2614271 33.73038292 1.3492403 C30.02454191 1.39388813 26.3188094 1.43315616 22.61279297 1.45996094 C19.03345111 1.48605028 15.45452807 1.52649142 11.87544632 1.57671165 C10.51282604 1.59334254 9.15013338 1.60488032 7.78742599 1.6111393 C5.87265192 1.6208207 3.95801199 1.65061077 2.04345703 1.68115234 C0.41130753 1.69780693 0.41130753 1.69780693 -1.2538147 1.71479797 C-4.78323529 2.17240626 -7.2495822 3.37003694 -10.32910156 5.11352539 C-10.35622223 6.55092052 -10.37555223 7.98846402 -10.39160156 9.42602539 C-10.40320313 10.2265332 -10.41480469 11.02704102 -10.42675781 11.85180664 C-10.42568011 14.28213873 -10.42568011 14.28213873 -9.32910156 17.11352539 C-7.67910156 17.44352539 -6.02910156 17.77352539 -4.32910156 18.11352539 C-6.07910156 18.86352539 -6.07910156 18.86352539 -8.32910156 19.11352539 C-10.95365312 17.46380727 -12.08084667 16.01428809 -12.90722656 13.01586914 C-13.49324261 9.20039509 -13.57865223 6.74396919 -12.14160156 3.11352539 C-8.80628352 -0.56682555 -4.74084095 -0.00933236 0 0 Z " fill="#C14748" transform="translate(404.3291015625,355.886474609375)"/>
<path d="M0 0 C23.43 0 46.86 0 71 0 C71.495 0.99 71.495 0.99 72 2 C71.15697327 1.99777939 70.31394653 1.99555878 69.44537354 1.99327087 C61.4999032 1.97323224 53.55444136 1.95800761 45.60895157 1.94818783 C41.52412081 1.94296968 37.43931093 1.93589139 33.35449219 1.92456055 C29.41228785 1.91369376 25.4701036 1.90771511 21.52788544 1.90512276 C20.0240014 1.90327536 18.52011846 1.89966787 17.01624298 1.89426994 C14.90956752 1.88700922 12.80297503 1.88601119 10.69628906 1.88647461 C9.49715881 1.884254 8.29802856 1.88203339 7.06256104 1.87974548 C4.50633972 1.98011807 2.42698555 2.24357499 0 3 C0 2.01 0 1.02 0 0 Z " fill="#164226" transform="translate(394,395)"/>
<path d="M0 0 C1.28117706 0.00007553 2.56235413 0.00015106 3.88235474 0.00022888 C5.28599079 0.00533591 6.68962645 0.01055191 8.09326172 0.01586914 C9.52529857 0.01773394 10.95733606 0.01915755 12.38937378 0.02015686 C16.16068276 0.0239772 19.93195329 0.03380337 23.70324707 0.04486084 C27.55069458 0.05508534 31.39814829 0.05965671 35.24560547 0.06469727 C42.79640425 0.07542606 50.34717135 0.0924967 57.89794922 0.11352539 C57.89794922 0.44352539 57.89794922 0.77352539 57.89794922 1.11352539 C57.13675278 1.12161224 56.37555634 1.1296991 55.59129333 1.13803101 C48.39713199 1.21616171 41.20316808 1.30350719 34.00924587 1.40105247 C30.31129604 1.45087348 26.61337282 1.49720397 22.9152832 1.53540039 C19.3425038 1.57243358 15.76995506 1.61884076 12.19737434 1.6715889 C10.83835991 1.69003753 9.47929621 1.7051802 8.12020683 1.71686935 C-1.67896953 1.76340635 -1.67896953 1.76340635 -11.10205078 4.11352539 C-7.41445096 0.2583074 -5.33557269 -0.01046191 0 0 Z " fill="#ACD460" transform="translate(404.10205078125,395.886474609375)"/>
<path d="M0 0 C4.5862069 1.44827586 4.5862069 1.44827586 6.3125 3.75 C7.54685245 7.78969893 7.47690017 10.83424403 5.875 14.75 C3.52473142 17.5703223 1.51502859 18.14077079 -2 19 C-2.33 18.34 -2.66 17.68 -3 17 C-1.02 16.67 0.96 16.34 3 16 C2.67 14.35 2.34 12.7 2 11 C2.66 10.67 3.32 10.34 4 10 C3.67 7.36 3.34 4.72 3 2 C2.01 1.67 1.02 1.34 0 1 C0 0.67 0 0.34 0 0 Z " fill="#C24442" transform="translate(464,357)"/>
<path d="M0 0 C2.91517292 1.07401108 4.77810176 1.77810176 7 4 C9.35680175 4.6160465 11.73631921 5.14726384 14.125 5.625 C15.40632813 5.88539063 16.68765625 6.14578125 18.0078125 6.4140625 C19.48894531 6.70410156 19.48894531 6.70410156 21 7 C21 7.33 21 7.66 21 8 C14.07626403 8.51076741 8.77602171 8.10000582 3 4 C1 1.75 1 1.75 0 0 Z " fill="#D4CA94" transform="translate(395,278)"/>
<path d="M0 0 C0.66 0 1.32 0 2 0 C2.27429625 5.39449293 2.36055646 8.51925805 -1 13 C-2.32 12.67 -3.64 12.34 -5 12 C-4.34 12 -3.68 12 -3 12 C-1.19682779 8.03302114 -0.50797009 4.3177458 0 0 Z " fill="#293145" transform="translate(471,362)"/>
<path d="M0 0 C0.66 0 1.32 0 2 0 C1.34 5.28 0.68 10.56 0 16 C-2.21614886 11.56770228 -2.51387226 8.82249354 -2 4 C-1 1.5 -1 1.5 0 0 Z " fill="#16403C" transform="translate(391,256)"/>
<path d="M0 0 C0 1.32 0 2.64 0 4 C-0.52078125 3.83628906 -1.0415625 3.67257813 -1.578125 3.50390625 C-4.6756875 2.85941341 -7.58841094 2.90588411 -10.75 2.9375 C-12.50570313 2.95103516 -12.50570313 2.95103516 -14.296875 2.96484375 C-15.18890625 2.97644531 -16.0809375 2.98804688 -17 3 C-14.45161413 0.45161413 -13.16415114 0.6311852 -9.625 0.375 C-8.19027344 0.26285156 -8.19027344 0.26285156 -6.7265625 0.1484375 C-4.48714532 0.02652081 -2.24273337 0 0 0 Z " fill="#1F3E40" transform="translate(420,244)"/>
<path d="M0 0 C4.875 1.75 4.875 1.75 6 4 C6.039992 5.99960012 6.04346799 8.00047242 6 10 C5.34 10 4.68 10 4 10 C3.67 7.36 3.34 4.72 3 2 C2.01 1.67 1.02 1.34 0 1 C0 0.67 0 0.34 0 0 Z " fill="#D34240" transform="translate(464,357)"/>
<path d="M0 0 C1.43088528 2.86177057 0.59991697 4.93375773 0 8 C-0.66 8 -1.32 8 -2 8 C-3.03864166 4.88407501 -3.09036928 3.9737344 -2 1 C-1.34 0.67 -0.68 0.34 0 0 Z " fill="#1D3144" transform="translate(391,360)"/>
</svg>
